<svg xmlns="http://www.w3.org/2000/svg" viewBox="0 0 1500 1500"><path fill="#8A1C3B" d="M 800.824219 55.152344 L 1390.3125 694.847656 C 1419.03125 726.007812 1419.03125 773.992188 1390.3125 805.152344 L 800.824219 1444.847656 C 787.738281 1459.046875 769.308594 1467.125 750 1467.125 C 730.691406 1467.125 712.261719 1459.046875 699.175781 1444.847656 L 109.6875 805.152344 C 80.96875 773.992188 80.96875 726.007812 109.6875 694.847656 L 699.175781 55.152344 C 712.261719 40.953125 730.691406 32.875 750 32.875 C 769.308594 32.875 787.738281 40.953125 800.824219 55.152344 Z"/><path fill="#ffffff" d="M 628.160156 655.632812 C 682.261719 577.417969 762.332031 579.539062 835.515625 630.171875 C 904.566406 677.941406 933.582031 760.914062 890.046875 832.714844 C 843.59375 909.332031 728.949219 926.042969 658.042969 881.066406 C 573.917969 827.703125 571.050781 738.191406 628.160156 655.632812 Z"/></svg>
