<svg xmlns="http://www.w3.org/2000/svg" viewBox="0 0 96 96"><rect width="96" height="96" rx="20" fill="#FCE9D6"/><ellipse cx="30" cy="52" rx="9" ry="8" fill="#6B3A2A"/><ellipse cx="48" cy="52" rx="8" ry="9" fill="#8A4A32"/><ellipse cx="66" cy="52" rx="11" ry="10" fill="#6B3A2A"/><circle cx="27" cy="50" r="2" fill="#FCE9D6"/><path d="M30 44c-3-5-7-8-13-9M48 43c0-6-2-11-6-15M66 44c3-5 8-8 14-9" stroke="#6B3A2A" stroke-width="3" fill="none" stroke-linecap="round"/><path d="M40 55c-3 4-8 6-14 6M40 52c-3 0-8-1-13-3M56 55c3 4 8 6 14 6M56 52c3 0 8-1 13-3" stroke="#8A4A32" stroke-width="3" fill="none" stroke-linecap="round"/><circle cx="21" cy="35" r="2.5" fill="#6B3A2A"/><circle cx="25" cy="33" r="2.5" fill="#6B3A2A"/></svg>