<svg xmlns="http://www.w3.org/2000/svg" viewBox="0 0 96 96"><rect width="96" height="96" rx="20" fill="#FCE9D6"/><path d="M15.05 40.6L15.05 48" stroke="#E4574C" stroke-width="5" stroke-linecap="round" stroke-linejoin="round" fill="none"/><path d="M15.05 48L15.05 55.4" stroke="#E4574C" stroke-width="5" stroke-linecap="round" stroke-linejoin="round" fill="none"/><path d="M17.74 40.6L23.79 40.6" stroke="#F2A03D" stroke-width="5" stroke-linecap="round" stroke-linejoin="round" fill="none"/><path d="M23.79 40.6L23.79 48" stroke="#F2A03D" stroke-width="5" stroke-linecap="round" stroke-linejoin="round" fill="none"/><path d="M23.79 48L23.79 55.4" stroke="#F2A03D" stroke-width="5" stroke-linecap="round" stroke-linejoin="round" fill="none"/><path d="M17.74 55.4L23.79 55.4" stroke="#F2A03D" stroke-width="5" stroke-linecap="round" stroke-linejoin="round" fill="none"/><path d="M17.74 48L17.74 55.4" stroke="#F2A03D" stroke-width="5" stroke-linecap="round" stroke-linejoin="round" fill="none"/><path d="M17.74 40.6L17.74 48" stroke="#F2A03D" stroke-width="5" stroke-linecap="round" stroke-linejoin="round" fill="none"/><path d="M27.83 53.2a2.2 2.2 0 1 0 0.44 3.08l-2.42 4.84" fill="#7a6a5b"/><path d="M31.86 40.6L37.91 40.6" stroke="#E4574C" stroke-width="5" stroke-linecap="round" stroke-linejoin="round" fill="none"/><path d="M37.91 40.6L37.91 48" stroke="#E4574C" stroke-width="5" stroke-linecap="round" stroke-linejoin="round" fill="none"/><path d="M37.91 48L37.91 55.4" stroke="#E4574C" stroke-width="5" stroke-linecap="round" stroke-linejoin="round" fill="none"/><path d="M31.86 55.4L37.91 55.4" stroke="#E4574C" stroke-width="5" stroke-linecap="round" stroke-linejoin="round" fill="none"/><path d="M31.86 48L31.86 55.4" stroke="#E4574C" stroke-width="5" stroke-linecap="round" stroke-linejoin="round" fill="none"/><path d="M31.86 40.6L31.86 48" stroke="#E4574C" stroke-width="5" stroke-linecap="round" stroke-linejoin="round" fill="none"/><path d="M40.6 40.6L46.66 40.6" stroke="#F2A03D" stroke-width="5" stroke-linecap="round" stroke-linejoin="round" fill="none"/><path d="M46.66 40.6L46.66 48" stroke="#F2A03D" stroke-width="5" stroke-linecap="round" stroke-linejoin="round" fill="none"/><path d="M46.66 48L46.66 55.4" stroke="#F2A03D" stroke-width="5" stroke-linecap="round" stroke-linejoin="round" fill="none"/><path d="M40.6 55.4L46.66 55.4" stroke="#F2A03D" stroke-width="5" stroke-linecap="round" stroke-linejoin="round" fill="none"/><path d="M40.6 48L40.6 55.4" stroke="#F2A03D" stroke-width="5" stroke-linecap="round" stroke-linejoin="round" fill="none"/><path d="M40.6 40.6L40.6 48" stroke="#F2A03D" stroke-width="5" stroke-linecap="round" stroke-linejoin="round" fill="none"/><path d="M49.34 40.6L55.4 40.6" stroke="#E4574C" stroke-width="5" stroke-linecap="round" stroke-linejoin="round" fill="none"/><path d="M55.4 40.6L55.4 48" stroke="#E4574C" stroke-width="5" stroke-linecap="round" stroke-linejoin="round" fill="none"/><path d="M55.4 48L55.4 55.4" stroke="#E4574C" stroke-width="5" stroke-linecap="round" stroke-linejoin="round" fill="none"/><path d="M49.34 55.4L55.4 55.4" stroke="#E4574C" stroke-width="5" stroke-linecap="round" stroke-linejoin="round" fill="none"/><path d="M49.34 48L49.34 55.4" stroke="#E4574C" stroke-width="5" stroke-linecap="round" stroke-linejoin="round" fill="none"/><path d="M49.34 40.6L49.34 48" stroke="#E4574C" stroke-width="5" stroke-linecap="round" stroke-linejoin="round" fill="none"/><path d="M59.43 53.2a2.2 2.2 0 1 0 0.44 3.08l-2.42 4.84" fill="#7a6a5b"/><path d="M63.47 40.6L69.52 40.6" stroke="#F2A03D" stroke-width="5" stroke-linecap="round" stroke-linejoin="round" fill="none"/><path d="M69.52 40.6L69.52 48" stroke="#F2A03D" stroke-width="5" stroke-linecap="round" stroke-linejoin="round" fill="none"/><path d="M69.52 48L69.52 55.4" stroke="#F2A03D" stroke-width="5" stroke-linecap="round" stroke-linejoin="round" fill="none"/><path d="M63.47 55.4L69.52 55.4" stroke="#F2A03D" stroke-width="5" stroke-linecap="round" stroke-linejoin="round" fill="none"/><path d="M63.47 48L63.47 55.4" stroke="#F2A03D" stroke-width="5" stroke-linecap="round" stroke-linejoin="round" fill="none"/><path d="M63.47 40.6L63.47 48" stroke="#F2A03D" stroke-width="5" stroke-linecap="round" stroke-linejoin="round" fill="none"/><path d="M72.21 40.6L78.26 40.6" stroke="#E4574C" stroke-width="5" stroke-linecap="round" stroke-linejoin="round" fill="none"/><path d="M78.26 40.6L78.26 48" stroke="#E4574C" stroke-width="5" stroke-linecap="round" stroke-linejoin="round" fill="none"/><path d="M78.26 48L78.26 55.4" stroke="#E4574C" stroke-width="5" stroke-linecap="round" stroke-linejoin="round" fill="none"/><path d="M72.21 55.4L78.26 55.4" stroke="#E4574C" stroke-width="5" stroke-linecap="round" stroke-linejoin="round" fill="none"/><path d="M72.21 48L72.21 55.4" stroke="#E4574C" stroke-width="5" stroke-linecap="round" stroke-linejoin="round" fill="none"/><path d="M72.21 40.6L72.21 48" stroke="#E4574C" stroke-width="5" stroke-linecap="round" stroke-linejoin="round" fill="none"/><path d="M80.95 40.6L87 40.6" stroke="#F2A03D" stroke-width="5" stroke-linecap="round" stroke-linejoin="round" fill="none"/><path d="M87 40.6L87 48" stroke="#F2A03D" stroke-width="5" stroke-linecap="round" stroke-linejoin="round" fill="none"/><path d="M87 48L87 55.4" stroke="#F2A03D" stroke-width="5" stroke-linecap="round" stroke-linejoin="round" fill="none"/><path d="M80.95 55.4L87 55.4" stroke="#F2A03D" stroke-width="5" stroke-linecap="round" stroke-linejoin="round" fill="none"/><path d="M80.95 48L80.95 55.4" stroke="#F2A03D" stroke-width="5" stroke-linecap="round" stroke-linejoin="round" fill="none"/><path d="M80.95 40.6L80.95 48" stroke="#F2A03D" stroke-width="5" stroke-linecap="round" stroke-linejoin="round" fill="none"/></svg>