<svg xmlns="http://www.w3.org/2000/svg" viewBox="0 0 96 96"><rect width="96" height="96" rx="20" fill="#E2ECF8"/><path d="M34 34c-3 4-2 10 6 24 6 11 12 20 16 20s8-6 10-16c4-18 3-30-2-34-4-3-10-2-16 0-6 2-11 3-14 6z" fill="#EE7B33"/><path d="M38 38c-2 4 0 9 6 20 4 8 8 15 11 16-8-4-14-16-18-27-1-4-1-7 1-9z" fill="#F79A57"/><path d="M40 34c-4-6-2-13 2-18 2 6 1 12-2 18z" fill="#5FA843"/><path d="M46 30c-1-7 3-13 8-16 0 6-3 12-8 16z" fill="#6BC47A"/><path d="M34 32c-6-3-13-1-16 4 6 3 13 2 16-4z" fill="#5FA843"/></svg>