<svg xmlns="http://www.w3.org/2000/svg" viewBox="0 0 96 96"><rect width="96" height="96" rx="20" fill="#FBF1D3"/><path d="M28 40h40l-4 38a4 4 0 0 1-4 4H36a4 4 0 0 1-4-4z" fill="#5C9E6E"/><path d="M28 40h40l-4 38a4 4 0 0 1-4 4H36a4 4 0 0 1-4-4z" fill="none" stroke="#3E7A52" stroke-width="2"/><path d="M40 50v24M48 50v24M56 50v24" stroke="#3E7A52" stroke-width="3" stroke-linecap="round"/><rect x="24" y="30" width="48" height="8" rx="4" fill="#3E7A52"/><path d="M40 30l3-8h10l3 8z" fill="#3E7A52"/></svg>