<svg xmlns="http://www.w3.org/2000/svg" viewBox="0 0 96 96"><rect width="96" height="96" rx="20" fill="#E2ECF8"/><path d="M18 58c0-3 2-5 4-6l6-13c1-3 4-5 7-5h26c3 0 6 2 7 5l6 13c2 1 4 3 4 6v9c0 2-2 4-4 4H22c-2 0-4-2-4-4z" fill="#4A78C4"/><path d="M34 36h28l4 10H30z" fill="#BFD6F2"/><circle cx="32" cy="68" r="7" fill="#2E3A52"/><circle cx="32" cy="68" r="3" fill="#BFD6F2"/><circle cx="64" cy="68" r="7" fill="#2E3A52"/><circle cx="64" cy="68" r="3" fill="#BFD6F2"/><rect x="22" y="52" width="8" height="5" rx="2" fill="#FBD34D"/></svg>