<svg xmlns="http://www.w3.org/2000/svg" viewBox="0 0 96 96"><rect width="96" height="96" rx="20" fill="#FADFD9"/><path d="M34 22c0-4 5-6 14-6s14 2 14 6l-3 16H37z" fill="#E4574C"/><path d="M34 22c0-4 5-6 14-6s14 2 14 6" fill="none" stroke="#B8342B" stroke-width="2"/><circle cx="48" cy="14" r="4" fill="#F2C94C"/><path d="M32 40h32l10 40c0 4-42 4-52 0z" fill="#F2994A"/><path d="M32 40h32l10 40c0 4-42 4-52 0z" fill="none" stroke="#C9721F" stroke-width="2"/><path d="M40 52l4 6-4 6M56 52l-4 6 4 6M48 50v28" stroke="#B0356B" stroke-width="3" fill="none" stroke-linecap="round"/><circle cx="34" cy="72" r="3" fill="#B0356B"/><circle cx="62" cy="72" r="3" fill="#B0356B"/><circle cx="48" cy="70" r="3" fill="#B0356B"/></svg>