<svg xmlns="http://www.w3.org/2000/svg" viewBox="0 0 96 96"><rect width="96" height="96" rx="20" fill="#DEEFEA"/><path d="M22 68c0-4 6-6 14-6h30c4 0 8 2 8 5s-4 5-8 5H30c-5 0-8-2-8-4z" fill="#C79A6B"/><circle cx="56" cy="52" r="22" fill="#E9B57A"/><circle cx="56" cy="52" r="15" fill="#D89E5E"/><circle cx="56" cy="52" r="8" fill="#C4863F"/><path d="M28 62c-2-8 0-14 2-18" stroke="#C79A6B" stroke-width="7" fill="none" stroke-linecap="round"/><circle cx="29" cy="42" r="4.5" fill="#B98A5C"/><path d="M29 38l-2-8M29 38l3-7" stroke="#B98A5C" stroke-width="2.5" fill="none" stroke-linecap="round"/><circle cx="27" cy="29" r="2" fill="#7A5A38"/><circle cx="33" cy="30" r="2" fill="#7A5A38"/></svg>