<svg xmlns="http://www.w3.org/2000/svg" viewBox="0 0 96 96"><rect width="96" height="96" rx="20" fill="#E7F1E4"/><path d="M24 46c8-8 40-8 48 0-2 16-12 26-24 26S26 62 24 46z" fill="#4FA65B"/><path d="M24 46c8-6 40-6 48 0-8 5-40 5-48 0z" fill="#7BC47F"/><circle cx="40" cy="52" r="5" fill="#EF7D8E"/><circle cx="56" cy="52" r="5" fill="#F6B44C"/><circle cx="48" cy="60" r="5" fill="#F9D65C"/><path d="M48 38c-2-4-1-7 0-10 1 3 2 6 0 10z" fill="#F6B44C"/><circle cx="48" cy="26" r="3" fill="#EF6C52"/></svg>