<svg xmlns="http://www.w3.org/2000/svg" viewBox="0 0 96 96"><rect width="96" height="96" rx="20" fill="#DEEFEA"/><path d="M24 42a24 20 0 0 1 48 0v4a24 18 0 0 1-48 0z" fill="#EBD9A8"/><path d="M24 44a24 18 0 0 0 48 0c0-3 0-3 0-3H24z" fill="#D9C185"/><ellipse cx="48" cy="40" rx="24" ry="16" fill="#4FA65B"/><ellipse cx="48" cy="40" rx="17" ry="11" fill="#67C078"/><path d="M50 62c0-6 6-6 6-12" fill="none" stroke="#4A90D9" stroke-width="0"/><path d="M36 68l6-8 6 8 6-8 6 8" fill="none" stroke="#4A90D9" stroke-width="4" stroke-linecap="round" stroke-linejoin="round"/><path d="M40 34l4 4 8-8" fill="none" stroke="#fff" stroke-width="4" stroke-linecap="round" stroke-linejoin="round"/></svg>