<svg xmlns="http://www.w3.org/2000/svg" viewBox="0 0 96 96"><rect width="96" height="96" rx="20" fill="#F5E5EF"/><rect x="20" y="16" width="56" height="64" rx="6" fill="#B0356B"/><rect x="20" y="16" width="56" height="64" rx="6" fill="none" stroke="#7C1D48" stroke-width="2"/><path d="M28 24h8v8h-8zM44 24h8v8h-8zM60 24h8v8h-8zM28 40h8v8h-8zM44 40h8v8h-8zM60 40h8v8h-8zM28 56h8v8h-8zM44 56h8v8h-8zM60 56h8v8h-8z" fill="#F2C94C"/><path d="M32 28l4 4-4 4-4-4zM48 28l4 4-4 4-4-4zM64 28l4 4-4 4-4-4zM32 44l4 4-4 4-4-4zM48 44l4 4-4 4-4-4zM64 44l4 4-4 4-4-4zM32 60l4 4-4 4-4-4zM48 60l4 4-4 4-4-4zM64 60l4 4-4 4-4-4z" fill="#2B9E86"/><rect x="20" y="72" width="56" height="6" fill="#F2C94C"/></svg>