<svg xmlns="http://www.w3.org/2000/svg" viewBox="0 0 96 96"><rect width="96" height="96" rx="20" fill="#E2ECF8"/><path d="M22 48h52v14a14 14 0 0 1-14 14H36a14 14 0 0 1-14-14z" fill="#5B6EE1"/><rect x="18" y="44" width="60" height="8" rx="4" fill="#8A9AF0"/><rect x="74" y="47" width="14" height="6" rx="3" fill="#3D4CA8"/><rect x="8" y="47" width="14" height="6" rx="3" fill="#3D4CA8"/><circle cx="38" cy="60" r="4" fill="#Bcd4f7"/><circle cx="52" cy="64" r="3.5" fill="#Bcd4f7"/><circle cx="46" cy="56" r="3" fill="#Bcd4f7"/><path d="M38 40c-3-5 3-7 0-12" stroke="#C5D3EA" stroke-width="4" fill="none" stroke-linecap="round"/><path d="M50 40c-3-5 3-7 0-12" stroke="#C5D3EA" stroke-width="4" fill="none" stroke-linecap="round"/><path d="M58 42c-3-5 3-7 0-12" stroke="#C5D3EA" stroke-width="4" fill="none" stroke-linecap="round"/></svg>