<svg xmlns="http://www.w3.org/2000/svg" viewBox="0 0 96 96"><rect width="96" height="96" rx="20" fill="#FBF1D3"/><path d="M30 40h36l-4 30a6 6 0 0 1-6 5H40a6 6 0 0 1-6-5z" fill="#EBD9A8"/><path d="M30 40h36l-1 9H31z" fill="#D9C185"/><path d="M35 58h26l-2 12a4 4 0 0 1-4 3.5H41a4 4 0 0 1-4-3.5z" fill="#E4574C"/><circle cx="43" cy="65" r="3.5" fill="#F3B33D"/><circle cx="53" cy="68" r="3" fill="#F3B33D"/><path d="M30 40c0-10 8-16 18-16s18 6 18 16z" fill="#F7E7B0"/><ellipse cx="48" cy="34" rx="18" ry="5" fill="#fff" opacity=".5"/></svg>