<svg xmlns="http://www.w3.org/2000/svg" viewBox="0 0 96 96"><rect width="96" height="96" rx="20" fill="#FBF1D3"/><path d="M18 50h44v6a12 12 0 0 1-12 12H30a12 12 0 0 1-12-12z" fill="#4A4F57"/><rect x="14" y="46" width="52" height="7" rx="3.5" fill="#6B717A"/><rect x="62" y="48" width="20" height="6" rx="3" fill="#B7C4CC"/><ellipse cx="40" cy="55" rx="18" ry="6" fill="#F2B23A"/><circle cx="32" cy="54" r="4" fill="#E88A1A"/><circle cx="46" cy="56" r="4" fill="#E88A1A"/><circle cx="39" cy="52" r="3.5" fill="#F7CF6A"/><path d="M30 42c-3-4 2-6-1-10" stroke="#E7C9A0" stroke-width="3" fill="none" stroke-linecap="round"/><path d="M42 42c-3-4 2-6-1-10" stroke="#E7C9A0" stroke-width="3" fill="none" stroke-linecap="round"/></svg>