<svg xmlns="http://www.w3.org/2000/svg" viewBox="0 0 96 96"><rect width="96" height="96" rx="20" fill="#E9E6F6"/><circle cx="34" cy="34" r="12" fill="#F4C89B"/><path d="M22 34c0-7 5-11 12-11s12 4 12 11c-3-2-6-3-12-3s-9 1-12 3z" fill="#6B4A9E"/><path d="M18 76c0-10 7-16 16-16s16 6 16 16z" fill="#7E63C9"/><circle cx="64" cy="40" r="12" fill="#F4C89B"/><path d="M52 40c0-7 5-11 12-11s12 4 12 11c-3-2-6-3-12-3s-9 1-12 3z" fill="#8B5A2B"/><path d="M48 84c0-10 7-16 16-16s16 6 16 16z" fill="#4FA6C9"/></svg>