<svg xmlns="http://www.w3.org/2000/svg" viewBox="0 0 96 96"><rect width="96" height="96" rx="20" fill="#E9E6F6"/><path d="M13 26L31 26" stroke="#8E6FC7" stroke-width="9" stroke-linecap="round" stroke-linejoin="round" fill="none"/><path d="M13 26L13 48" stroke="#8E6FC7" stroke-width="9" stroke-linecap="round" stroke-linejoin="round" fill="none"/><path d="M13 48L31 48" stroke="#8E6FC7" stroke-width="9" stroke-linecap="round" stroke-linejoin="round" fill="none"/><path d="M31 48L31 70" stroke="#8E6FC7" stroke-width="9" stroke-linecap="round" stroke-linejoin="round" fill="none"/><path d="M13 70L31 70" stroke="#8E6FC7" stroke-width="9" stroke-linecap="round" stroke-linejoin="round" fill="none"/><path d="M39 26L57 26" stroke="#3E8ED0" stroke-width="9" stroke-linecap="round" stroke-linejoin="round" fill="none"/><path d="M57 26L57 48" stroke="#3E8ED0" stroke-width="9" stroke-linecap="round" stroke-linejoin="round" fill="none"/><path d="M57 48L57 70" stroke="#3E8ED0" stroke-width="9" stroke-linecap="round" stroke-linejoin="round" fill="none"/><path d="M39 70L57 70" stroke="#3E8ED0" stroke-width="9" stroke-linecap="round" stroke-linejoin="round" fill="none"/><path d="M39 48L39 70" stroke="#3E8ED0" stroke-width="9" stroke-linecap="round" stroke-linejoin="round" fill="none"/><path d="M39 26L39 48" stroke="#3E8ED0" stroke-width="9" stroke-linecap="round" stroke-linejoin="round" fill="none"/><path d="M65 26L83 26" stroke="#8E6FC7" stroke-width="9" stroke-linecap="round" stroke-linejoin="round" fill="none"/><path d="M83 26L83 48" stroke="#8E6FC7" stroke-width="9" stroke-linecap="round" stroke-linejoin="round" fill="none"/><path d="M83 48L83 70" stroke="#8E6FC7" stroke-width="9" stroke-linecap="round" stroke-linejoin="round" fill="none"/><path d="M65 70L83 70" stroke="#8E6FC7" stroke-width="9" stroke-linecap="round" stroke-linejoin="round" fill="none"/><path d="M65 48L65 70" stroke="#8E6FC7" stroke-width="9" stroke-linecap="round" stroke-linejoin="round" fill="none"/><path d="M65 26L65 48" stroke="#8E6FC7" stroke-width="9" stroke-linecap="round" stroke-linejoin="round" fill="none"/></svg>