<svg xmlns="http://www.w3.org/2000/svg" viewBox="0 0 96 96"><rect width="96" height="96" rx="20" fill="#FCE9D6"/><circle cx="48" cy="52" r="14" fill="#F4B45C"/><path d="M38 50c2 3 4 4 10 4s8-1 10-4" fill="#7A4A2B"/><path d="M42 56c1 2 3 3 6 3s5-1 6-3" stroke="#7A4A2B" stroke-width="2" fill="none" stroke-linecap="round"/><path d="M24 34c0-10 11-16 24-16s24 6 24 16z" fill="#FFFFFF"/><ellipse cx="48" cy="34" rx="26" ry="5" fill="#FFFFFF"/><path d="M32 34c0-6 3-9 3-9M48 32c0-8 0-12 0-12M64 34c0-6-3-9-3-9" stroke="#E6E6E6" stroke-width="2" fill="none" stroke-linecap="round"/></svg>