<svg xmlns="http://www.w3.org/2000/svg" viewBox="0 0 96 96"><rect width="96" height="96" rx="20" fill="#FBF1D3"/><path d="M30 30c0-6 5-11 11-11h6c8 0 15 6 17 14l4 15v14H22V58c0-4 3-7 7-7h1z" fill="#F2C230"/><path d="M32 34c1-6 6-9 11-9h4c6 0 11 4 13 10l2 8H32z" fill="#2E3A52"/><rect x="22" y="60" width="46" height="10" fill="#3A9E63"/><circle cx="34" cy="74" r="8" fill="#2E3A52"/><circle cx="34" cy="74" r="3" fill="#F2C230"/><circle cx="70" cy="74" r="6" fill="#2E3A52"/><circle cx="70" cy="74" r="2.5" fill="#F2C230"/><rect x="64" y="46" width="6" height="18" rx="3" fill="#2E3A52"/></svg>