<svg xmlns="http://www.w3.org/2000/svg" viewBox="0 0 96 96"><rect width="96" height="96" rx="20" fill="#F5E5EF"/><path d="M22 30h34a8 8 0 0 1 8 8v14a8 8 0 0 1-8 8H40l-12 10v-10h-6a8 8 0 0 1-8-8V38a8 8 0 0 1 8-8z" fill="#C879A8"/><circle cx="32" cy="45" r="3.5" fill="#fff"/><circle cx="43" cy="45" r="3.5" fill="#fff"/><circle cx="54" cy="45" r="3.5" fill="#fff"/><g fill="none" stroke="#E9A9CE" stroke-width="4" stroke-linecap="round"><path d="M74 40c4 4 4 12 0 16"/><path d="M80 34c7 8 7 20 0 28"/></g></svg>