<svg xmlns="http://www.w3.org/2000/svg" viewBox="0 0 96 96"><rect width="96" height="96" rx="20" fill="#DEEFEA"/><circle cx="34" cy="34" r="11" fill="#F2C79B"/><path d="M18 72c0-11 7-19 16-19s16 8 16 19z" fill="#E4574C"/><circle cx="64" cy="38" r="10" fill="#F2C79B"/><path d="M50 72c0-10 6-17 14-17s14 7 14 17z" fill="#3E6B8C"/><circle cx="31" cy="33" r="1.5" fill="#4A3527"/><circle cx="37" cy="33" r="1.5" fill="#4A3527"/><circle cx="61" cy="37" r="1.5" fill="#4A3527"/><circle cx="67" cy="37" r="1.5" fill="#4A3527"/><path d="M31 38c2 1.5 4 1.5 6 0" stroke="#B5453B" stroke-width="2" fill="none" stroke-linecap="round"/><path d="M61 42c2 1.5 4 1.5 6 0" stroke="#B5453B" stroke-width="2" fill="none" stroke-linecap="round"/></svg>