<svg xmlns="http://www.w3.org/2000/svg" viewBox="0 0 96 96"><rect width="96" height="96" rx="20" fill="#E7F1E4"/><path d="M18 66c8-6 14-8 22-8h14c6 0 10-2 14-5l6-4c3-2 7 3 4 6l-10 9c-4 4-9 6-15 6H30c-4 0-8 1-12 3z" fill="#F0B267"/><path d="M18 66c8-6 14-8 22-8h6" stroke="#C77D33" stroke-width="2" fill="none"/><circle cx="52" cy="30" r="12" fill="#E4574C"/><path d="M52 22v16M44 30h16" stroke="#fff" stroke-width="3" stroke-linecap="round"/><path d="M64 40l6-4c3-2 7 3 4 6l-4 4z" fill="#EFA24E"/></svg>