<svg xmlns="http://www.w3.org/2000/svg" viewBox="0 0 96 96"><rect width="96" height="96" rx="20" fill="#E2ECF8"/><path d="M24 32c8-6 40-6 48 0 4 3 4 30 0 33-8 6-40 6-48 0-4-3-4-30 0-33z" fill="#6FB3E0"/><path d="M24 32c8-6 40-6 48 0 4 3 4 30 0 33-8 6-40 6-48 0-4-3-4-30 0-33z" fill="none" stroke="#4A90C2" stroke-width="2"/><path d="M22 32c10 6 42 6 52 0" fill="none" stroke="#4A90C2" stroke-width="2"/><path d="M34 42c4 3 24 3 28 0M34 52c4 3 24 3 28 0" stroke="#4A90C2" stroke-width="2" fill="none" stroke-linecap="round"/></svg>