<svg xmlns="http://www.w3.org/2000/svg" viewBox="0 0 96 96"><rect width="96" height="96" rx="20" fill="#F5E5EF"/><path d="M48 74C30 62 22 50 22 40c0-8 6-14 14-14 5 0 9 2 12 6 3-4 7-6 12-6 8 0 14 6 14 14 0 10-8 22-26 34z" fill="#E4574C"/><path d="M36 34c-3 0-6 2-7 6" stroke="#F5B8C4" stroke-width="4" fill="none" stroke-linecap="round"/><path d="M52 40c3-4 8-5 12-3" stroke="#fff" stroke-width="3" fill="none" stroke-linecap="round" opacity="0.6"/><g fill="#F9D65C"><path d="M48 14l2 5 5 2-5 2-2 5-2-5-5-2 5-2z"/></g></svg>