<svg xmlns="http://www.w3.org/2000/svg" viewBox="0 0 96 96"><rect width="96" height="96" rx="20" fill="#DEEFEA"/><path d="M30 66c-4-18 8-34 24-32 14 2 20 14 16 26-3 10-14 16-26 14-8-1-13-4-14-8z" fill="#4FB3C4"/><path d="M44 40c-8-4-18-2-20 6 8 2 16 0 20-6z" fill="#3A97A8"/><circle cx="58" cy="44" r="4" fill="#FFF"/><circle cx="59" cy="44" r="2.2" fill="#3B2A1A"/><path d="M68 46l12-3-8 8z" fill="#F0972B"/><path d="M40 62c6 6 16 6 22 0" fill="#6FC9D8"/><path d="M50 78c-2 4 0 8 4 8M58 78c2 4 4 6 8 4" stroke="#F0972B" stroke-width="3.5" fill="none" stroke-linecap="round"/></svg>