<svg xmlns="http://www.w3.org/2000/svg" viewBox="0 0 96 96"><rect width="96" height="96" rx="20" fill="#FBF1D3"/><path d="M16 58h64c0 12-14 20-32 20S16 70 16 58z" fill="#E8A13A"/><path d="M16 58h64c0 12-14 20-32 20S16 70 16 58z" fill="none" stroke="#B87518" stroke-width="2"/><ellipse cx="16" cy="58" rx="0" ry="0"/><path d="M18 58c4-6 12-10 30-10s26 4 30 10" fill="#F6D97A"/><circle cx="34" cy="52" r="5" fill="#E8A13A"/><circle cx="48" cy="49" r="5" fill="#D97706"/><circle cx="62" cy="52" r="5" fill="#E8A13A"/><path d="M28 46c3-2 5 0 8-1M52 45c3-2 6 0 9 0" stroke="#C9721F" stroke-width="3" fill="none" stroke-linecap="round"/><circle cx="41" cy="46" r="3" fill="#D97706"/><circle cx="55" cy="47" r="3" fill="#B87518"/></svg>