<svg xmlns="http://www.w3.org/2000/svg" viewBox="0 0 96 96"><rect width="96" height="96" rx="20" fill="#FBF1D3"/><path d="M34 24l-14 8 6 13 8-4v33h36V41l8 4 6-13-14-8-8 5-6 4-6-4z" fill="#5FB89E"/><path d="M40 24l8 6 8-6-4-2h-8z" fill="#3E9880"/><path d="M40 24l8 6v6l-6-4z" fill="#4EA890"/><path d="M56 24l-8 6v6l6-4z" fill="#4EA890"/><rect x="46" y="42" width="4" height="4" rx="1" fill="#2E7B66"/><rect x="46" y="52" width="4" height="4" rx="1" fill="#2E7B66"/><rect x="46" y="62" width="4" height="4" rx="1" fill="#2E7B66"/></svg>