<svg xmlns="http://www.w3.org/2000/svg" viewBox="0 0 96 96"><rect width="96" height="96" rx="20" fill="#E7F1E4"/><ellipse cx="48" cy="52" rx="8" ry="16" fill="#5A6B52"/><circle cx="48" cy="34" r="8" fill="#6E8062"/><path d="M48 68l-4 12M48 68l4 12" stroke="#5A6B52" stroke-width="3" fill="none" stroke-linecap="round"/><path d="M48 22l-2-9M48 22l2-9" stroke="#5A6B52" stroke-width="2.5" fill="none" stroke-linecap="round"/><path d="M48 30l-12-6" stroke="#5A6B52" stroke-width="3" fill="none" stroke-linecap="round"/><ellipse cx="30" cy="44" rx="14" ry="7" fill="#CFE6F5" opacity="0.7" transform="rotate(-20 30 44)"/><ellipse cx="66" cy="44" rx="14" ry="7" fill="#CFE6F5" opacity="0.7" transform="rotate(20 66 44)"/><path d="M40 58l-10 4M56 58l10 4M42 64l-8 6M54 64l8 6" stroke="#5A6B52" stroke-width="2.5" fill="none" stroke-linecap="round"/></svg>