<svg xmlns="http://www.w3.org/2000/svg" viewBox="0 0 96 96"><rect width="96" height="96" rx="20" fill="#E7F1E4"/><path d="M40 22c-2 3-2 6 0 9 2 20 8 40 14 44 4 3 8 0 8-6 0-16-6-38-14-48-3-4-6-3-8 1z" fill="#5FA843"/><path d="M43 26c1 18 6 36 12 42 2 2 4 2 5 0-6-4-11-22-13-40-1-2-2-4-3-4s-1 1-1 2z" fill="#7CC05C"/><path d="M40 22c-4-3-9-3-12 0 2 3 6 5 9 4 1-1 2-2 3-4z" fill="#3E7A2E"/><g fill="#4E8F37"><circle cx="46" cy="40" r="1.6"/><circle cx="49" cy="52" r="1.6"/><circle cx="53" cy="64" r="1.6"/></g></svg>