<svg xmlns="http://www.w3.org/2000/svg" viewBox="0 0 96 96"><rect width="96" height="96" rx="20" fill="#FBF1D3"/><path d="M30 40c-6 6-8 18 0 28 6 8 18 12 30 6 10-5 14-16 8-28-5-10-14-16-24-14-6 1-10 4-14 8z" fill="#C79A5C"/><path d="M34 42c-4 5-5 14 1 21 5 6 14 9 22 5-8 2-16-1-21-7-4-6-5-14-2-19z" fill="#D9B279"/><g fill="#A87C42"><circle cx="42" cy="52" r="2.5"/><circle cx="56" cy="48" r="2.5"/><circle cx="52" cy="64" r="2.5"/><circle cx="38" cy="64" r="2"/><circle cx="62" cy="58" r="2"/></g></svg>