<svg xmlns="http://www.w3.org/2000/svg" viewBox="0 0 96 96"><rect width="96" height="96" rx="20" fill="#E7F1E4"/><circle cx="34" cy="40" r="12" fill="#F4C89B"/><path d="M22 42c-2-11 6-17 12-17s14 6 12 17c-2-4-4-5-4-5s-3 2-8 2-6-2-8-2-2 1-4 5z" fill="#7A4A2B"/><path d="M18 82c0-11 7-17 16-17s16 6 16 17z" fill="#E58BB8"/><circle cx="64" cy="46" r="11" fill="#F4C89B"/><path d="M53 46c0-7 5-11 11-11s11 4 11 11c-3-2-5-3-11-3s-8 1-11 3z" fill="#5A3A22"/><path d="M50 86c0-9 6-15 14-15s14 6 14 15z" fill="#5AA9E6"/><path d="M40 30c2-4 6-6 10-4" stroke="#E4574C" stroke-width="3" fill="none" stroke-linecap="round"/></svg>