<svg xmlns="http://www.w3.org/2000/svg" viewBox="0 0 96 96"><rect width="96" height="96" rx="20" fill="#FCE9D6"/><path d="M26 46h18v20a9 9 0 0 1-9 9 9 9 0 0 1-9-9z" fill="#E4574C"/><path d="M52 46h18v20a9 9 0 0 1-9 9 9 9 0 0 1-9-9z" fill="#E8A24E"/><path d="M39 24h18v18a9 9 0 0 1-9 9 9 9 0 0 1-9-9z" fill="#C97E2E"/><ellipse cx="35" cy="46" rx="9" ry="3" fill="#F07A6F"/><ellipse cx="61" cy="46" rx="9" ry="3" fill="#F5C542"/><ellipse cx="48" cy="24" rx="9" ry="3" fill="#E0A050"/><circle cx="31" cy="55" r="1.6" fill="#8A2E27"/><circle cx="38" cy="60" r="1.6" fill="#8A2E27"/><circle cx="57" cy="55" r="1.6" fill="#B87A1E"/><circle cx="64" cy="60" r="1.6" fill="#B87A1E"/><circle cx="45" cy="34" r="1.6" fill="#7A4A2B"/><circle cx="52" cy="38" r="1.6" fill="#7A4A2B"/></svg>