<svg xmlns="http://www.w3.org/2000/svg" viewBox="0 0 96 96"><rect width="96" height="96" rx="20" fill="#E2ECF8"/><path d="M22 48c8-14 30-18 44-10 6 3 10 7 12 10-2 3-6 7-12 10-14 8-36 4-44-10z" fill="#F0972B"/><path d="M66 48c8-6 14-8 12-16-6 2-10 6-12 10zM66 48c8 6 14 8 12 16-6-2-10-6-12-10z" fill="#F2A94B"/><path d="M34 40c-6 4-6 12 0 16-4-4-4-12 0-16z" fill="#DB7E1B"/><circle cx="36" cy="46" r="3.5" fill="#FFF"/><circle cx="36" cy="46" r="1.8" fill="#3B2A1A"/><path d="M46 40c8-3 16-3 22 0M46 56c8 3 16 3 22 0" stroke="#DB7E1B" stroke-width="1.6" fill="none" stroke-linecap="round"/><circle cx="52" cy="48" r="2" fill="#FBE6CE"/><circle cx="60" cy="46" r="2" fill="#FBE6CE"/></svg>