<svg xmlns="http://www.w3.org/2000/svg" viewBox="0 0 96 96"><rect width="96" height="96" rx="20" fill="#E2ECF8"/><path d="M78 62c-8-6-14-8-22-8H42c-6 0-10-2-14-5l-6-4c-3-2-7 3-4 6l10 9c4 4 9 6 15 6h24c4 0 8 1 12 3z" fill="#F0B267"/><path d="M78 62c-8-6-14-8-22-8h-6" stroke="#C77D33" stroke-width="2" fill="none"/><circle cx="44" cy="30" r="12" fill="#4F86C6"/><path d="M44 24v12M38 30h12" stroke="#fff" stroke-width="3" stroke-linecap="round"/><path d="M44 36l-6-6M44 36l6-6" stroke="#fff" stroke-width="3" stroke-linecap="round" fill="none"/></svg>