<svg xmlns="http://www.w3.org/2000/svg" viewBox="0 0 96 96"><rect width="96" height="96" rx="20" fill="#FADFD9"/><circle cx="48" cy="46" r="24" fill="#F4C89A"/><path d="M24 46c0-14 11-24 24-24s24 10 24 24c-6-3-14-5-24-5s-18 2-24 5z" fill="#4A3226"/><circle cx="38" cy="50" r="7" fill="#F7B199"/><circle cx="58" cy="50" r="7" fill="#F7B199"/><path d="M35 50c1-2 5-2 6 0M55 50c1-2 5-2 6 0" stroke="#4A3226" stroke-width="2.5" fill="none" stroke-linecap="round"/><path d="M42 62c3 2 9 2 12 0" stroke="#B56A55" stroke-width="3" fill="none" stroke-linecap="round"/><path d="M64 52c6 0 10 5 10 12v10H54V64c0-7 4-12 10-12z" fill="#E88CA0"/></svg>