<svg xmlns="http://www.w3.org/2000/svg" viewBox="0 0 96 96"><rect width="96" height="96" rx="20" fill="#E9E6F6"/><path d="M20 40h20l8 12c8 0 20 2 28 8 4 3 4 8-2 8H24c-3 0-4-2-4-5z" fill="#6C5CE0"/><path d="M20 40h20l3 5H20z" fill="#8577E8"/><path d="M74 68H24c-3 0-4-2-4-5h56c2 3 0 5-2 5z" fill="#4B3DB8"/><path d="M30 50l4 6M38 50l4 6" stroke="#B7AEF2" stroke-width="3" stroke-linecap="round"/><path d="M50 55c6 0 14 2 20 6" stroke="#B7AEF2" stroke-width="3" fill="none" stroke-linecap="round"/></svg>