<svg xmlns="http://www.w3.org/2000/svg" viewBox="0 0 96 96"><rect width="96" height="96" rx="20" fill="#F5E5EF"/><path d="M48 22c4 12 8 16 20 20-12 4-16 8-20 20-4-12-8-16-20-20 12-4 16-8 20-20z" fill="#C066B5" stroke="#94418A" stroke-width="2.5" stroke-linejoin="round"/><path d="M74 20c1.5 4 3 5.5 7 7-4 1.5-5.5 3-7 7-1.5-4-3-5.5-7-7 4-1.5 5.5-3 7-7z" fill="#FFC94D"/><path d="M26 58c1.2 3.2 2.4 4.4 5.6 5.6-3.2 1.2-4.4 2.4-5.6 5.6-1.2-3.2-2.4-4.4-5.6-5.6 3.2-1.2 4.4-2.4 5.6-5.6z" fill="#FFC94D"/></svg>