<svg xmlns="http://www.w3.org/2000/svg" viewBox="0 0 96 96"><rect width="96" height="96" rx="20" fill="#DEEFEA"/><path d="M48 30c-13 0-24 11-24 26s11 22 24 22 24-7 24-22-11-26-24-26z" fill="#9CCB6A"/><path d="M48 30c-10 0-18 8-21 19 3-8 11-13 21-13s18 5 21 13c-3-11-11-19-21-19z" fill="#B7DB84"/><path d="M48 30c0-5 3-9 8-10" stroke="#7A4A2B" stroke-width="4" fill="none" stroke-linecap="round"/><path d="M54 20c4-3 10-1 11 3-4 2-9 1-11-3z" fill="#4FA65B"/><g fill="#F4E0B0"><circle cx="48" cy="58" r="4"/><circle cx="40" cy="52" r="2.5"/><circle cx="56" cy="52" r="2.5"/><circle cx="42" cy="64" r="2.5"/><circle cx="54" cy="64" r="2.5"/></g></svg>