<svg xmlns="http://www.w3.org/2000/svg" viewBox="0 0 96 96"><rect width="96" height="96" rx="20" fill="#FBF1D3"/><circle cx="48" cy="48" r="30" fill="#F0C24B"/><circle cx="48" cy="48" r="20" fill="#FBF1D3"/><g fill="#8A6D2F"><rect x="45" y="12" width="6" height="12" rx="3"/><rect x="45" y="72" width="6" height="12" rx="3"/><rect x="72" y="45" width="12" height="6" rx="3"/><rect x="12" y="45" width="12" height="6" rx="3"/><rect x="66" y="20" width="6" height="12" rx="3" transform="rotate(45 69 26)"/><rect x="24" y="64" width="6" height="12" rx="3" transform="rotate(45 27 70)"/><rect x="66" y="64" width="6" height="12" rx="3" transform="rotate(-45 69 70)"/><rect x="24" y="20" width="6" height="12" rx="3" transform="rotate(-45 27 26)"/></g><circle cx="48" cy="48" r="8" fill="#E58B4C"/></svg>