<svg xmlns="http://www.w3.org/2000/svg" viewBox="0 0 96 96"><rect width="96" height="96" rx="20" fill="#FBF1D3"/><path d="M20 78c0-14 40-14 40 0z" fill="#8FBF6B" transform="translate(8,-6)"/><path d="M18 84c0-16 60-16 60 0z" fill="#7CB05C"/><ellipse cx="48" cy="38" rx="16" ry="7" fill="#C98A3C"/><path d="M32 38c0-6 32-6 32 0" fill="#E0A94D"/><circle cx="48" cy="46" r="11" fill="#F4B45C"/><path d="M40 44c2 3 4 4 8 4s6-1 8-4" fill="#7A4A2B"/><path d="M42 50c1 2 3 3 6 3s5-1 6-3" stroke="#7A4A2B" stroke-width="2" fill="none" stroke-linecap="round"/></svg>