<svg xmlns="http://www.w3.org/2000/svg" viewBox="0 0 96 96"><rect width="96" height="96" rx="20" fill="#FBF1D3"/><path d="M24 26c2 22 14 44 40 46 6 0 10-3 10-6 0-2-3-2-6-2-20-2-32-20-34-40-1-3-2-5-5-4-4 1-5 3-5 6z" fill="#F6C744"/><path d="M28 24c3 20 15 40 38 44 3 1 6 0 6-2-2 1-5 1-8 0C43 62 32 44 30 24c-1-2-1-3-2-3s0 2 0 3z" fill="#FFDE72"/><path d="M24 26c-1-3 0-6 3-7 2-1 3 0 3 2-1 1-3 2-4 4-1 1-1 2-2 1z" fill="#8FB84A"/><path d="M70 68c3 0 6 1 6 3s-3 3-6 2c-2-1-2-4 0-5z" fill="#7A4A2B"/></svg>