<svg xmlns="http://www.w3.org/2000/svg" viewBox="0 0 96 96"><rect width="96" height="96" rx="20" fill="#FADFD9"/><path d="M30 34c4-8 32-8 36 0-4 4-8 6-18 6s-14-2-18-6z" fill="#E4574C"/><circle cx="48" cy="50" r="13" fill="#F2C79B"/><path d="M34 50c0-10 6-18 14-18s14 8 14 18c-4-2-8-3-14-3s-10 1-14 3z" fill="#4A3527"/><path d="M32 84c0-10 7-18 16-18s16 8 16 18z" fill="#C0417A"/><circle cx="43" cy="50" r="1.7" fill="#4A3527"/><circle cx="53" cy="50" r="1.7" fill="#4A3527"/><path d="M44 57c2 2 6 2 8 0" stroke="#B5453B" stroke-width="2.5" fill="none" stroke-linecap="round"/><circle cx="48" cy="45" r="2.4" fill="#E4574C"/></svg>