<svg xmlns="http://www.w3.org/2000/svg" viewBox="0 0 96 96">
  <rect width="96" height="96" rx="20" fill="#ffe7c2"/>
  <!-- ears -->
  <ellipse cx="21" cy="52" rx="12" ry="22" fill="#8a5a34"/>
  <ellipse cx="75" cy="52" rx="12" ry="22" fill="#8a5a34"/>
  <ellipse cx="21" cy="55" rx="7" ry="15" fill="#6b4425"/>
  <ellipse cx="75" cy="55" rx="7" ry="15" fill="#6b4425"/>
  <!-- head -->
  <path d="M48 20c-18 0-28 12-28 30 0 18 12 30 28 30s28-12 28-30c0-18-10-30-28-30z" fill="#c98b4e"/>
  <!-- eyes -->
  <circle cx="35" cy="46" r="6" fill="#3a2416"/>
  <circle cx="61" cy="46" r="6" fill="#3a2416"/>
  <circle cx="37" cy="44" r="2" fill="#fff"/>
  <circle cx="63" cy="44" r="2" fill="#fff"/>
  <!-- muzzle patch -->
  <ellipse cx="48" cy="66" rx="18" ry="15" fill="#f0d3a8"/>
  <!-- nose -->
  <ellipse cx="48" cy="60" rx="7" ry="5" fill="#3a2416"/>
  <!-- mouth line -->
  <path d="M48 65v6" stroke="#3a2416" stroke-width="2.5" stroke-linecap="round" fill="none"/>
  <!-- tongue -->
  <path d="M42 72c0 8 12 8 12 0z" fill="#ff7a8a"/>
</svg>
