<svg xmlns="http://www.w3.org/2000/svg" viewBox="0 0 96 96"><rect width="96" height="96" rx="20" fill="#E2ECF8"/><path d="M30 40c8-5 28-5 36 0 3 2 3 20 0 22-8 5-28 5-36 0-3-2-3-20 0-22z" fill="#F2C14E"/><path d="M30 40c8-5 28-5 36 0 3 2 3 20 0 22-8 5-28 5-36 0-3-2-3-20 0-22z" fill="none" stroke="#C9972F" stroke-width="2"/><path d="M28 40c10 5 30 5 40 0" fill="none" stroke="#C9972F" stroke-width="2"/><path d="M18 30c6 1 10 4 12 9M22 24c8 2 12 6 14 12M28 20c6 3 9 7 10 13" stroke="#6FB3E0" stroke-width="4" fill="none" stroke-linecap="round"/></svg>