<svg xmlns="http://www.w3.org/2000/svg" viewBox="0 0 96 96"><rect width="96" height="96" rx="20" fill="#F5E5EF"/><path d="M48 22c0-5 4-8 9-9" stroke="#7A4A2B" stroke-width="4" fill="none" stroke-linecap="round"/><path d="M50 22c6-4 14-2 15 3-6 3-13 2-15-3z" fill="#4FA65B"/><g fill="#7E57C2"><circle cx="40" cy="38" r="8"/><circle cx="56" cy="38" r="8"/><circle cx="32" cy="52" r="8"/><circle cx="48" cy="52" r="8"/><circle cx="64" cy="52" r="8"/><circle cx="40" cy="66" r="8"/><circle cx="56" cy="66" r="8"/><circle cx="48" cy="80" r="8"/></g><g fill="#9575D6"><circle cx="38" cy="36" r="2.5"/><circle cx="54" cy="36" r="2.5"/><circle cx="30" cy="50" r="2.5"/><circle cx="46" cy="50" r="2.5"/><circle cx="62" cy="50" r="2.5"/></g></svg>