<svg xmlns="http://www.w3.org/2000/svg" viewBox="0 0 96 96"><rect width="96" height="96" rx="20" fill="#FBF1D3"/><path d="M20 30h56a6 6 0 0 1 6 6v24a6 6 0 0 1-6 6H20a6 6 0 0 1-6-6V36a6 6 0 0 1 6-6z" fill="#C68A4E"/><path d="M20 30h56a6 6 0 0 1 6 6v8H14v-8a6 6 0 0 1 6-6z" fill="#D9A063"/><path d="M14 52h68v8a6 6 0 0 1-6 6H20a6 6 0 0 1-6-6v-8z" fill="#B0763C"/><ellipse cx="30" cy="48" rx="4" ry="7" fill="#7A4A2B" opacity=".45"/><ellipse cx="66" cy="48" rx="4" ry="7" fill="#7A4A2B" opacity=".45"/><path d="M48 34v28" stroke="#7A4A2B" stroke-width="2" opacity=".3"/></svg>