<svg xmlns="http://www.w3.org/2000/svg" viewBox="0 0 96 96"><rect width="96" height="96" rx="20" fill="#FBF1D3"/><path d="M32 20h32v10c0 12-7 20-16 20s-16-8-16-20z" fill="#F2A93B"/><path d="M32 24H22c0 8 5 12 11 12M64 24h10c0 8-5 12-11 12" fill="none" stroke="#E4A85C" stroke-width="4" stroke-linecap="round"/><rect x="42" y="50" width="12" height="12" fill="#C98A4B"/><rect x="34" y="62" width="28" height="8" rx="3" fill="#C98A4B"/><rect x="30" y="70" width="36" height="8" rx="3" fill="#8A5A3B"/><path d="M44 30l3 5 5 1-4 4 1 5-5-3-5 3 1-5-4-4 5-1z" fill="#fff"/></svg>