<svg xmlns="http://www.w3.org/2000/svg" viewBox="0 0 96 96"><rect width="96" height="96" rx="20" fill="#E7F1E4"/><path d="M16 58l6-16c1-3 3-4 6-4h40c3 0 5 1 6 4l6 16v14c0 2-2 4-4 4h-4c-2 0-4-2-4-4v-3H28v3c0 2-2 4-4 4h-4c-2 0-4-2-4-4z" fill="#E4574C"/><path d="M26 44l4-10h36l4 10z" fill="#BFE0F5"/><path d="M46 34v10M50 34v10" stroke="#E4574C" stroke-width="2"/><circle cx="28" cy="72" r="7" fill="#2E3A59"/><circle cx="28" cy="72" r="3" fill="#8899AA"/><circle cx="68" cy="72" r="7" fill="#2E3A59"/><circle cx="68" cy="72" r="3" fill="#8899AA"/><rect x="20" y="56" width="10" height="8" rx="2" fill="#F4C24C"/></svg>