<svg xmlns="http://www.w3.org/2000/svg" viewBox="0 0 96 96"><rect width="96" height="96" rx="20" fill="#E2ECF8"/><path d="M14 70h68v6a4 4 0 0 1-4 4H18a4 4 0 0 1-4-4z" fill="#5B7FB5"/><rect x="22" y="40" width="16" height="30" rx="3" fill="#F7FAFF"/><rect x="42" y="30" width="18" height="40" rx="3" fill="#FFFFFF"/><rect x="64" y="46" width="14" height="24" rx="3" fill="#F7FAFF"/><rect x="27" y="46" width="6" height="7" rx="1.5" fill="#8FB4E0"/><rect x="27" y="57" width="6" height="7" rx="1.5" fill="#8FB4E0"/><rect x="47" y="37" width="8" height="8" rx="2" fill="#8FB4E0"/><rect x="47" y="50" width="8" height="8" rx="2" fill="#8FB4E0"/><rect x="68" y="52" width="6" height="7" rx="1.5" fill="#8FB4E0"/><path d="M50 12l30 12-4 5-12-2-6 8-5-1 3-9-9-1-3 4-4-1z" fill="#F5A623"/></svg>