<svg xmlns="http://www.w3.org/2000/svg" viewBox="0 0 96 96"><rect width="96" height="96" rx="20" fill="#F5E5EF"/><g><circle cx="32" cy="24" r="4" fill="#E0A63C"/><path d="M32 26v10" stroke="#E0A63C" stroke-width="3" stroke-linecap="round"/><path d="M32 38c-9 0-14 8-14 18s7 16 14 16 14-6 14-16-5-18-14-18z" fill="#F4C95D"/><path d="M32 38c-9 0-14 8-14 18s7 16 14 16 14-6 14-16-5-18-14-18z" fill="none" stroke="#E0A63C" stroke-width="2.5"/><circle cx="32" cy="56" r="6" fill="#E4574C"/></g><g><circle cx="64" cy="24" r="4" fill="#E0A63C"/><path d="M64 26v10" stroke="#E0A63C" stroke-width="3" stroke-linecap="round"/><path d="M64 38c-9 0-14 8-14 18s7 16 14 16 14-6 14-16-5-18-14-18z" fill="#F4C95D"/><path d="M64 38c-9 0-14 8-14 18s7 16 14 16 14-6 14-16-5-18-14-18z" fill="none" stroke="#E0A63C" stroke-width="2.5"/><circle cx="64" cy="56" r="6" fill="#E4574C"/></g></svg>