<svg xmlns="http://www.w3.org/2000/svg" viewBox="0 0 96 96"><rect width="96" height="96" rx="20" fill="#FADFD9"/><path d="M24 24c8 6 40 6 48 0v48c-8 6-40 6-48 0z" fill="#C0392B"/><path d="M24 24c8 6 40 6 48 0v10c-8 6-40 6-48 0z" fill="#E4574C"/><rect x="34" y="42" width="12" height="12" rx="3" fill="#F0C24B"/><rect x="50" y="42" width="12" height="12" rx="3" fill="#F0C24B"/><rect x="34" y="58" width="12" height="12" rx="3" fill="#F0C24B"/><rect x="50" y="58" width="12" height="12" rx="3" fill="#F0C24B"/><path d="M24 72c8 6 40 6 48 0" fill="none" stroke="#8E2A20" stroke-width="4"/></svg>