<svg xmlns="http://www.w3.org/2000/svg" viewBox="0 0 96 96"><rect width="96" height="96" rx="20" fill="#FADFD9"/><path d="M24 30c8-4 14 2 24 2s16-6 24-2c-2 8-8 12-8 20 0 10 6 16 6 24-8 4-14-2-22-2s-14 6-22 2c0-8 6-14 6-24 0-8-6-12-8-20z" fill="#E86A5C"/><path d="M28 34c6 2 10 8 10 16s-4 14-8 20" stroke="#F7B7AD" stroke-width="3" fill="none" stroke-linecap="round"/><path d="M68 34c-6 2-10 8-10 16s4 14 8 20" stroke="#F7B7AD" stroke-width="3" fill="none" stroke-linecap="round"/><circle cx="48" cy="48" r="4" fill="#F5D08A"/></svg>