<svg xmlns="http://www.w3.org/2000/svg" viewBox="0 0 96 96"><rect width="96" height="96" rx="20" fill="#E2ECF8"/><path d="M18 62l6-16a6 6 0 015.5-4h20a6 6 0 015 3l7 11 8 3a5 5 0 013.5 4.8V62a4 4 0 01-4 4H22a4 4 0 01-4-4z" fill="#E4574C"/><path d="M31 46l3-6h13v10H33z" fill="#BFE0F5"/><circle cx="30" cy="66" r="7" fill="#3A3A3A"/><circle cx="30" cy="66" r="3" fill="#BFC7CE"/><circle cx="66" cy="66" r="7" fill="#3A3A3A"/><circle cx="66" cy="66" r="3" fill="#BFC7CE"/><path d="M74 30l-6 8M84 40l-9 3M80 22l-4 9" stroke="#F5A623" stroke-width="4" stroke-linecap="round"/></svg>