<svg xmlns="http://www.w3.org/2000/svg" viewBox="0 0 96 96"><rect width="96" height="96" rx="20" fill="#FCE9D6"/><path d="M22 24c8-4 16 2 26 2s18-6 26-2c4 8-2 16 0 24s6 18-2 24c-8-2-16-6-24-6s-16 4-24 6c-8-6-2-16 0-24s-6-16-2-24z" fill="#B07242"/><path d="M22 24c8-4 16 2 26 2s18-6 26-2c2 4 1 8 0 12-8-3-16 1-26 1s-18-4-26-1c-1-4-2-8 0-12z" fill="#C98A54"/><circle cx="30" cy="34" r="2.5" fill="#8A5730"/><circle cx="66" cy="34" r="2.5" fill="#8A5730"/><circle cx="30" cy="64" r="2.5" fill="#8A5730"/><circle cx="66" cy="64" r="2.5" fill="#8A5730"/><path d="M48 26v46" stroke="#8A5730" stroke-width="2" opacity=".3"/></svg>