<svg xmlns="http://www.w3.org/2000/svg" viewBox="0 0 96 96"><rect width="96" height="96" rx="20" fill="#FBF1D3"/><path d="M36 62c-8-4-12-12-11-21C26 28 37 20 49 21c13 1 22 12 20 25-1 8-6 12-6 18 0 6-6 9-11 7-4-2-3-7-6-9-3-2-6-2-10 0z" fill="#F0B8C4"/><path d="M36 62c-8-4-12-12-11-21C26 28 37 20 49 21c13 1 22 12 20 25-1 8-6 12-6 18 0 6-6 9-11 7-4-2-3-7-6-9-3-2-6-2-10 0z" fill="none" stroke="#C77E92" stroke-width="3"/><path d="M40 40c0-6 5-9 10-8s8 6 6 11" fill="none" stroke="#C77E92" stroke-width="4" stroke-linecap="round"/><g fill="none" stroke="#F0C24B" stroke-width="4" stroke-linecap="round"><path d="M78 34c5 5 5 15 0 20"/><path d="M84 26c9 10 9 26 0 36"/></g></svg>