<svg xmlns="http://www.w3.org/2000/svg" viewBox="0 0 96 96"><rect width="96" height="96" rx="20" fill="#E7F1E4"/><circle cx="48" cy="52" r="26" fill="#EAF5E6" stroke="#4FA65B" stroke-width="3"/><path d="M48 66c-10 0-16-8-16-16 8 0 16 6 16 16z" fill="#5FB86B"/><path d="M48 62c0-9 6-16 15-16 0 9-6 16-15 16z" fill="#4FA65B"/><path d="M48 66V44" stroke="#2E7D3A" stroke-width="3" stroke-linecap="round"/><path d="M42 20a10 10 0 0 1 20 0c0 6-5 8-10 8s-10-2-10-8z" fill="#E4574C"/><path d="M48 12c0-4 4-6 8-6-1 4-4 6-8 6z" fill="#4FA65B"/></svg>