<svg xmlns="http://www.w3.org/2000/svg" viewBox="0 0 96 96"><rect width="96" height="96" rx="20" fill="#E2ECF8"/><path d="M30 26l-12 8 6 12 6-3v37h36V43l6 3 6-12-12-8-6-4H36z" fill="#3E7CB1"/><path d="M30 26l-12 8 6 12 6-3v37h36V43l6 3 6-12-12-8-6-4H36z" fill="none" stroke="#2A557C" stroke-width="2"/><path d="M36 22c2 4 4 6 12 6s10-2 12-6" fill="#2A557C"/><path d="M48 30v50" stroke="#F2C94C" stroke-width="3"/><path d="M40 44h16M40 52h16M40 60h16" stroke="#F2C94C" stroke-width="2"/><circle cx="48" cy="38" r="3" fill="#F2C94C"/></svg>