<svg xmlns="http://www.w3.org/2000/svg" viewBox="0 0 96 96"><rect width="96" height="96" rx="20" fill="#E7F1E4"/><circle cx="26" cy="34" r="10" fill="#F4C89B"/><path d="M16 72c0-9 5-14 10-14s10 5 10 14z" fill="#4F7FD6"/><circle cx="70" cy="34" r="10" fill="#F4C89B"/><path d="M60 72c0-9 5-14 10-14s10 5 10 14z" fill="#E4574C"/><circle cx="48" cy="46" r="9" fill="#F4C89B"/><path d="M39 80c0-8 4-13 9-13s9 5 9 13z" fill="#F2A93B"/><path d="M48 20c4 6-4 10-4 10s-8-4-4-10c2-3 6-3 8 0z" fill="#D96BA6"/></svg>