<svg xmlns="http://www.w3.org/2000/svg" viewBox="0 0 96 96"><rect width="96" height="96" rx="20" fill="#DEEFEA"/><path d="M26 36h44l-5 40a5 5 0 0 1-5 5H36a5 5 0 0 1-5-5z" fill="#E4574C"/><path d="M26 36h44l-5 40a5 5 0 0 1-5 5H36a5 5 0 0 1-5-5z" fill="none" stroke="#C13C33" stroke-width="2"/><rect x="22" y="30" width="52" height="8" rx="4" fill="#C13C33"/><path d="M30 34c8-14 28-14 36 0" fill="none" stroke="#8F9CA6" stroke-width="4" stroke-linecap="round"/><ellipse cx="48" cy="52" rx="16" ry="5" fill="#6FB3E0"/></svg>