<svg xmlns="http://www.w3.org/2000/svg" viewBox="0 0 96 96"><rect width="96" height="96" rx="20" fill="#FBF1D3"/><path d="M20 50c0-3 2-5 5-5h46c3 0 5 2 5 5 0 15-12 26-28 26S20 65 20 50z" fill="#E8A93C"/><path d="M24 51c2-7 12-11 24-11s22 4 24 11z" fill="#F2C561"/><circle cx="36" cy="46" r="3" fill="#D68A2A"/><circle cx="48" cy="43" r="3" fill="#D68A2A"/><circle cx="58" cy="47" r="3" fill="#D68A2A"/><circle cx="42" cy="50" r="3" fill="#D68A2A"/><circle cx="54" cy="52" r="3" fill="#D68A2A"/><path d="M30 74c4 4 11 6 18 6s14-2 18-6z" fill="#D6942F"/></svg>