<svg xmlns="http://www.w3.org/2000/svg" viewBox="0 0 96 96"><rect width="96" height="96" rx="20" fill="#F5E5EF"/><rect x="14" y="60" width="68" height="8" rx="4" fill="#C9A8BD"/><path d="M18 58c8-4 10-16 16-24 3-4 6-2 6 3 0 8-6 18-2 22 3 3 8-2 12-8 2-3 5-1 5 2 0 4-2 8 1 9 3 1 8-4 12-8" fill="none" stroke="#9B3F6E" stroke-width="5" stroke-linecap="round" stroke-linejoin="round"/><rect x="62" y="28" width="6" height="30" rx="3" fill="#F2A93B" transform="rotate(38 65 43)"/><path d="M74 30l4 3-8 9-3-1z" fill="#5B8DD9"/></svg>