<svg xmlns="http://www.w3.org/2000/svg" viewBox="0 0 96 96"><rect width="96" height="96" rx="20" fill="#FCE9D6"/><circle cx="34" cy="42" r="16" fill="#F5B98E"/><circle cx="62" cy="42" r="16" fill="#EFA06E"/><path d="M18 74c0-10 8-16 16-16s16 6 16 16z" fill="#4C8BF5"/><path d="M46 74c0-10 8-16 16-16s16 6 16 16z" fill="#E4574C"/><path d="M48 30c-3-4-9-2-9 3 0 4 9 9 9 9s9-5 9-9c0-5-6-7-9-3z" fill="#E4574C"/><circle cx="30" cy="42" r="2.5" fill="#3B3B3B"/><circle cx="66" cy="42" r="2.5" fill="#3B3B3B"/></svg>