<svg xmlns="http://www.w3.org/2000/svg" viewBox="0 0 96 96"><rect width="96" height="96" rx="20" fill="#E2ECF8"/><path d="M22 52c0-4 3-6 6-6h40c3 0 6 2 6 6 0 14-11 24-26 24S22 66 22 52z" fill="#4E9AD6"/><path d="M26 54c2-8 12-14 22-14s20 6 22 14z" fill="#FCFCFA"/><ellipse cx="38" cy="46" rx="3" ry="4.5" fill="#F2F0EA"/><ellipse cx="48" cy="43" rx="3" ry="4.5" fill="#F2F0EA"/><ellipse cx="58" cy="46" rx="3" ry="4.5" fill="#F2F0EA"/><ellipse cx="43" cy="50" rx="3" ry="4.5" fill="#F2F0EA"/><ellipse cx="53" cy="50" rx="3" ry="4.5" fill="#F2F0EA"/><path d="M30 76c4 4 11 6 18 6s14-2 18-6z" fill="#3E82BC"/></svg>