<svg xmlns="http://www.w3.org/2000/svg" viewBox="0 0 96 96"><rect width="96" height="96" rx="20" fill="#FBF1D3"/><path d="M48 22c0 6-2 10-2 14" stroke="#B9A05A" stroke-width="4" stroke-linecap="round"/><path d="M34 46c0-10 6-14 14-14s14 4 14 14c0 18-6 30-14 30s-14-12-14-30z" fill="#F3ECDD"/><path d="M48 34c-6 0-11 6-11 16 0 14 5 24 11 24z" fill="#FBF7EE"/><path d="M48 34c6 0 11 6 11 16 0 14-5 24-11 24z" fill="#E9DEC6"/><path d="M48 36v38" stroke="#C9B98E" stroke-width="2"/><path d="M40 40c-2 6-2 20 2 30" stroke="#C9B98E" stroke-width="1.6" fill="none"/><path d="M56 40c2 6 2 20-2 30" stroke="#C9B98E" stroke-width="1.6" fill="none"/></svg>