<svg xmlns="http://www.w3.org/2000/svg" viewBox="0 0 96 96"><rect width="96" height="96" rx="20" fill="#FBF1D3"/><path d="M48 20c-4 6-4 12 0 18 4-6 4-12 0-18z" fill="#7BB661"/><path d="M40 30c-6 3-9 8-8 15 6-2 9-7 8-15z" fill="#7BB661"/><path d="M56 30c6 3 9 8 8 15-6-2-9-7-8-15z" fill="#7BB661"/><path d="M36 44c-6 3-9 8-8 15 6-2 9-7 8-15z" fill="#E0A82E"/><path d="M60 44c6 3 9 8 8 15-6-2-9-7-8-15z" fill="#E0A82E"/><path d="M44 78V38h8v40z" fill="#7A4A2B"/><path d="M48 38c-4 6-4 12 0 18 4-6 4-12 0-18z" fill="#E0A82E"/></svg>