<svg xmlns="http://www.w3.org/2000/svg" viewBox="0 0 96 96"><rect width="96" height="96" rx="20" fill="#FADFD9"/><path d="M22 54c0-14 12-24 28-24 12 0 22 6 25 16l7-2-2 12-11 8c-4 4-11 6-19 6-16 0-28-8-28-16z" fill="#F19AA0"/><circle cx="34" cy="44" r="3" fill="#7A2E3A"/><path d="M22 52c-4 0-6-3-6-6" stroke="#E07A82" stroke-width="4" fill="none" stroke-linecap="round"/><rect x="42" y="18" width="12" height="10" rx="3" fill="#E07A82"/><circle cx="60" cy="42" r="11" fill="#E6B84C" stroke="#C79733" stroke-width="2.5"/><path d="M56 38h8M56 42h8M60 38c4 0 4 5 0 5h-3l6 7" stroke="#8A6416" stroke-width="2.5" fill="none" stroke-linecap="round" stroke-linejoin="round"/></svg>