<svg xmlns="http://www.w3.org/2000/svg" viewBox="0 0 96 96"><rect width="96" height="96" rx="20" fill="#DEEFEA"/><path d="M17.56 37.54L17.56 48" stroke="#2FB3A6" stroke-width="5" stroke-linecap="round" stroke-linejoin="round" fill="none"/><path d="M17.56 48L17.56 58.46" stroke="#2FB3A6" stroke-width="5" stroke-linecap="round" stroke-linejoin="round" fill="none"/><path d="M21.37 37.54L29.93 37.54" stroke="#4FA65B" stroke-width="5" stroke-linecap="round" stroke-linejoin="round" fill="none"/><path d="M29.93 37.54L29.93 48" stroke="#4FA65B" stroke-width="5" stroke-linecap="round" stroke-linejoin="round" fill="none"/><path d="M29.93 48L29.93 58.46" stroke="#4FA65B" stroke-width="5" stroke-linecap="round" stroke-linejoin="round" fill="none"/><path d="M21.37 58.46L29.93 58.46" stroke="#4FA65B" stroke-width="5" stroke-linecap="round" stroke-linejoin="round" fill="none"/><path d="M21.37 48L21.37 58.46" stroke="#4FA65B" stroke-width="5" stroke-linecap="round" stroke-linejoin="round" fill="none"/><path d="M21.37 37.54L21.37 48" stroke="#4FA65B" stroke-width="5" stroke-linecap="round" stroke-linejoin="round" fill="none"/><path d="M33.73 37.54L42.29 37.54" stroke="#2FB3A6" stroke-width="5" stroke-linecap="round" stroke-linejoin="round" fill="none"/><path d="M42.29 37.54L42.29 48" stroke="#2FB3A6" stroke-width="5" stroke-linecap="round" stroke-linejoin="round" fill="none"/><path d="M42.29 48L42.29 58.46" stroke="#2FB3A6" stroke-width="5" stroke-linecap="round" stroke-linejoin="round" fill="none"/><path d="M33.73 58.46L42.29 58.46" stroke="#2FB3A6" stroke-width="5" stroke-linecap="round" stroke-linejoin="round" fill="none"/><path d="M33.73 48L33.73 58.46" stroke="#2FB3A6" stroke-width="5" stroke-linecap="round" stroke-linejoin="round" fill="none"/><path d="M33.73 37.54L33.73 48" stroke="#2FB3A6" stroke-width="5" stroke-linecap="round" stroke-linejoin="round" fill="none"/><path d="M48 56.26a2.2 2.2 0 1 0 0.44 3.08l-2.42 4.84" fill="#7a6a5b"/><path d="M53.71 37.54L62.27 37.54" stroke="#4FA65B" stroke-width="5" stroke-linecap="round" stroke-linejoin="round" fill="none"/><path d="M62.27 37.54L62.27 48" stroke="#4FA65B" stroke-width="5" stroke-linecap="round" stroke-linejoin="round" fill="none"/><path d="M62.27 48L62.27 58.46" stroke="#4FA65B" stroke-width="5" stroke-linecap="round" stroke-linejoin="round" fill="none"/><path d="M53.71 58.46L62.27 58.46" stroke="#4FA65B" stroke-width="5" stroke-linecap="round" stroke-linejoin="round" fill="none"/><path d="M53.71 48L53.71 58.46" stroke="#4FA65B" stroke-width="5" stroke-linecap="round" stroke-linejoin="round" fill="none"/><path d="M53.71 37.54L53.71 48" stroke="#4FA65B" stroke-width="5" stroke-linecap="round" stroke-linejoin="round" fill="none"/><path d="M66.07 37.54L74.63 37.54" stroke="#2FB3A6" stroke-width="5" stroke-linecap="round" stroke-linejoin="round" fill="none"/><path d="M74.63 37.54L74.63 48" stroke="#2FB3A6" stroke-width="5" stroke-linecap="round" stroke-linejoin="round" fill="none"/><path d="M74.63 48L74.63 58.46" stroke="#2FB3A6" stroke-width="5" stroke-linecap="round" stroke-linejoin="round" fill="none"/><path d="M66.07 58.46L74.63 58.46" stroke="#2FB3A6" stroke-width="5" stroke-linecap="round" stroke-linejoin="round" fill="none"/><path d="M66.07 48L66.07 58.46" stroke="#2FB3A6" stroke-width="5" stroke-linecap="round" stroke-linejoin="round" fill="none"/><path d="M66.07 37.54L66.07 48" stroke="#2FB3A6" stroke-width="5" stroke-linecap="round" stroke-linejoin="round" fill="none"/><path d="M78.44 37.54L87 37.54" stroke="#4FA65B" stroke-width="5" stroke-linecap="round" stroke-linejoin="round" fill="none"/><path d="M87 37.54L87 48" stroke="#4FA65B" stroke-width="5" stroke-linecap="round" stroke-linejoin="round" fill="none"/><path d="M87 48L87 58.46" stroke="#4FA65B" stroke-width="5" stroke-linecap="round" stroke-linejoin="round" fill="none"/><path d="M78.44 58.46L87 58.46" stroke="#4FA65B" stroke-width="5" stroke-linecap="round" stroke-linejoin="round" fill="none"/><path d="M78.44 48L78.44 58.46" stroke="#4FA65B" stroke-width="5" stroke-linecap="round" stroke-linejoin="round" fill="none"/><path d="M78.44 37.54L78.44 48" stroke="#4FA65B" stroke-width="5" stroke-linecap="round" stroke-linejoin="round" fill="none"/></svg>