<svg xmlns="http://www.w3.org/2000/svg" viewBox="0 0 96 96"><rect width="96" height="96" rx="20" fill="#FCE9D6"/><path d="M30 40 27 26l15 11z" fill="#F0972B"/><path d="M66 40 69 26 54 37z" fill="#F0972B"/><ellipse cx="48" cy="54" rx="23" ry="21" fill="#F5A63B"/><ellipse cx="48" cy="62" rx="12" ry="11" fill="#FBE6CE"/><path d="M32 40c2 6 3 12 2 18M64 40c-2 6-3 12-2 18M40 42c1 5 1 10 0 15M56 42c-1 5-1 10 0 15" stroke="#3B2A1A" stroke-width="2.5" fill="none" stroke-linecap="round"/><circle cx="40" cy="50" r="3.5" fill="#3B2A1A"/><circle cx="56" cy="50" r="3.5" fill="#3B2A1A"/><path d="M48 58l-3 3h6z" fill="#3B2A1A"/><path d="M48 61c0 3-3 4-6 3M48 61c0 3 3 4 6 3" stroke="#3B2A1A" stroke-width="2" fill="none" stroke-linecap="round"/></svg>