<svg xmlns="http://www.w3.org/2000/svg" viewBox="0 0 96 96"><rect width="96" height="96" rx="20" fill="#E7F1E4"/><path d="M28 44c-8-3-12 3-9 9 2 4 7 4 10 2z" fill="#E7C9A0"/><path d="M68 44c8-3 12 3 9 9-2 4-7 4-10 2z" fill="#E7C9A0"/><ellipse cx="48" cy="54" rx="23" ry="21" fill="#F3E7D6"/><path d="M30 44c-3-8 2-14 8-12M66 44c3-8-2-14-8-12" fill="#8A6A46"/><ellipse cx="48" cy="66" rx="13" ry="10" fill="#F0BEC5"/><circle cx="39" cy="50" r="3.5" fill="#3B2A1A"/><circle cx="57" cy="50" r="3.5" fill="#3B2A1A"/><circle cx="43" cy="66" r="2.5" fill="#C77E88"/><circle cx="53" cy="66" r="2.5" fill="#C77E88"/><path d="M40 30c-2-6 2-9 5-8M56 30c2-6-2-9-5-8" fill="#B99A6E"/></svg>