<svg xmlns="http://www.w3.org/2000/svg" viewBox="0 0 96 96"><rect width="96" height="96" rx="20" fill="#E7F1E4"/><path d="M20 50c0-3 2-5 5-5h46c3 0 5 2 5 5 0 15-12 26-28 26S20 65 20 50z" fill="#D95F4A"/><path d="M24 51c2-7 12-11 24-11s22 4 24 11z" fill="#E87C63"/><circle cx="36" cy="46" r="4" fill="#5DA84E"/><circle cx="57" cy="45" r="4" fill="#F0A93C"/><circle cx="47" cy="50" r="4" fill="#E8514A"/><circle cx="42" cy="43" r="3" fill="#7FBF5E"/><circle cx="53" cy="52" r="3" fill="#F0C24A"/><path d="M30 74c4 4 11 6 18 6s14-2 18-6z" fill="#C24F3B"/></svg>