<svg xmlns="http://www.w3.org/2000/svg" viewBox="0 0 96 96"><rect width="96" height="96" rx="20" fill="#E7F1E4"/><g fill="#4FA65B" stroke="#2F7A40" stroke-width="3"><circle cx="24" cy="26" r="8.5"/><circle cx="43" cy="26" r="8.5"/><circle cx="62" cy="26" r="8.5"/><circle cx="24" cy="48" r="8.5"/><circle cx="43" cy="48" r="8.5"/><circle cx="62" cy="48" r="8.5"/><circle cx="24" cy="70" r="8.5"/><circle cx="43" cy="70" r="8.5"/><circle cx="62" cy="70" r="8.5"/><circle cx="76" cy="70" r="8.5"/></g><g fill="#FBF1D3"><circle cx="24" cy="26" r="3.1"/><circle cx="43" cy="26" r="3.1"/><circle cx="62" cy="26" r="3.1"/><circle cx="24" cy="48" r="3.1"/><circle cx="43" cy="48" r="3.1"/><circle cx="62" cy="48" r="3.1"/><circle cx="24" cy="70" r="3.1"/><circle cx="43" cy="70" r="3.1"/><circle cx="62" cy="70" r="3.1"/><circle cx="76" cy="70" r="3.1"/></g></svg>