<svg xmlns="http://www.w3.org/2000/svg" viewBox="0 0 96 96"><rect width="96" height="96" rx="20" fill="#FCE9D6"/><path d="M20 34h56" stroke="#8B5E3C" stroke-width="3" stroke-linecap="round" stroke-dasharray="2 5"/><path d="M34 34c-8 0-12 6-12 14s5 20 12 20 12-12 12-20-4-14-12-14z" fill="#E58A3E"/><path d="M34 20c0 6-2 10-2 14M34 20c4 2 6 6 6 12" stroke="#5FA05A" stroke-width="3" stroke-linecap="round" fill="none"/><path d="M62 36c-6 0-9 5-9 12s4 18 9 18 9-11 9-18-3-12-9-12z" fill="#C0503F"/><path d="M62 24c0 6-2 8-2 12M62 24c3 2 5 5 5 10" stroke="#5FA05A" stroke-width="3" stroke-linecap="round" fill="none"/><path d="M34 40v24M62 42v22" stroke="#B5652C" stroke-width="1.5"/></svg>