<svg xmlns="http://www.w3.org/2000/svg" viewBox="0 0 96 96"><rect width="96" height="96" rx="20" fill="#FBF1D3"/><path d="M16 24h20v14H30v14H44v14H16z" fill="#E8C86A"/><path d="M16 24h20v14H30v14H44v14H16z" fill="none" stroke="#C9A544" stroke-width="3" stroke-linejoin="round"/><circle cx="66" cy="24" r="8" fill="#F4B24C"/><path d="M66 32c-5 1-8 5-8 10v6" stroke="#5E7A3A" stroke-width="6" fill="none" stroke-linecap="round"/><path d="M58 40l-8 2M66 38l8 4" stroke="#5E7A3A" stroke-width="6" fill="none" stroke-linecap="round"/><path d="M60 48l-6 8M66 48l4 8" stroke="#5E7A3A" stroke-width="6" fill="none" stroke-linecap="round"/><path d="M76 66l-8-6M76 66l0-10M76 66l8-6" stroke="#D98A3D" stroke-width="4" fill="none" stroke-linecap="round" stroke-linejoin="round"/></svg>