<svg xmlns="http://www.w3.org/2000/svg" viewBox="0 0 96 96"><rect width="96" height="96" rx="20" fill="#DEEFEA"/><path d="M8 46h80v40H8z" fill="#5FB3C4"/><path d="M8 46c8-5 14 0 20 0s12-5 20 0 12 0 20 0 12-5 20 0v6H8z" fill="#8AD0DC"/><circle cx="48" cy="40" r="9" fill="#F4B24C"/><path d="M48 49v10" stroke="#3E7A86" stroke-width="6" fill="none" stroke-linecap="round"/><path d="M40 44l-8 6M56 44l8 6" stroke="#3E7A86" stroke-width="6" fill="none" stroke-linecap="round"/><circle cx="34" cy="64" r="3" fill="#CFEBF0"/><circle cx="62" cy="70" r="4" fill="#CFEBF0"/><circle cx="48" cy="76" r="3" fill="#CFEBF0"/><path d="M30 34l-6-6M66 34l6-6" stroke="#9AD8E2" stroke-width="4" fill="none" stroke-linecap="round"/></svg>