<svg xmlns="http://www.w3.org/2000/svg" viewBox="0 0 96 96"><rect width="96" height="96" rx="20" fill="#F5E5EF"/><path d="M48 30c-2-8 4-14 4-14s6 6 4 14" fill="#7AB661"/><path d="M32 52c0-14 7-22 16-22s16 8 16 22c0 16-8 26-16 26s-16-10-16-26z" fill="#C77FB0"/><path d="M40 52c0-13 4-22 8-22s8 9 8 22c0 15-4 24-8 24s-8-9-8-24z" fill="#B368A0"/><path d="M48 30c-2 0-4 20-4 30s2 22 4 22" stroke="#8E4A7D" stroke-width="2.5" fill="none"/><path d="M48 30c2 0 4 20 4 30s-2 22-4 22" stroke="#8E4A7D" stroke-width="2.5" fill="none"/></svg>