<svg xmlns="http://www.w3.org/2000/svg" viewBox="0 0 96 96"><rect width="96" height="96" rx="20" fill="#E2ECF8"/><circle cx="48" cy="32" r="13" fill="#F4C89B"/><path d="M35 32c0-8 6-13 13-13s13 5 13 13c-3-3-6-4-13-4s-10 1-13 4z" fill="#4A3220"/><path d="M30 66c0-10 8-16 18-16s18 6 18 16z" fill="#3F72C9"/><circle cx="42" cy="33" r="2.2" fill="#2A1E14"/><circle cx="54" cy="33" r="2.2" fill="#2A1E14"/><path d="M43 40c3 2 7 2 10 0" stroke="#2A1E14" stroke-width="2.2" fill="none" stroke-linecap="round"/><path d="M62 74l6-6 6 6-6 12z" fill="#F2C94C"/><path d="M62 74h12" stroke="#D8A93A" stroke-width="2"/></svg>