<svg xmlns="http://www.w3.org/2000/svg" viewBox="0 0 96 96"><rect width="96" height="96" rx="20" fill="#F5E5EF"/><circle cx="48" cy="32" r="13" fill="#F4C89B"/><path d="M34 34c-2-11 6-18 14-18s16 7 14 18c-2-5-4-6-4-6s-4 3-10 3-8-3-10-3-2 1-4 6z" fill="#4A3220"/><path d="M30 66c0-10 8-16 18-16s18 6 18 16z" fill="#D96BA6"/><circle cx="42" cy="33" r="2.2" fill="#2A1E14"/><circle cx="54" cy="33" r="2.2" fill="#2A1E14"/><path d="M43 40c3 2 7 2 10 0" stroke="#2A1E14" stroke-width="2.2" fill="none" stroke-linecap="round"/><path d="M62 74l6-6 6 6-6 12z" fill="#E4574C"/><path d="M62 74h12" stroke="#C24438" stroke-width="2"/></svg>