<svg xmlns="http://www.w3.org/2000/svg" viewBox="0 0 96 96"><rect width="96" height="96" rx="20" fill="#E2ECF8"/><circle cx="32" cy="40" r="12" fill="#F4C89B"/><path d="M20 40c0-8 5-12 12-12s12 4 12 12c-3-3-6-4-12-4s-9 1-12 4z" fill="#5A3A22"/><path d="M16 84c0-11 7-17 16-17s16 6 16 17z" fill="#4FA65B"/><circle cx="64" cy="44" r="11" fill="#F4C89B"/><path d="M53 46c-2-10 6-15 11-15s13 5 11 15c-2-4-3-5-3-5s-4 2-8 2-6-2-8-2-1 1-3 5z" fill="#3A2A20"/><path d="M48 86c0-10 7-16 16-16s16 6 16 16z" fill="#F2A93B"/><path d="M46 34c2-3 6-4 8-2" stroke="#E4574C" stroke-width="3" fill="none" stroke-linecap="round"/></svg>