<svg xmlns="http://www.w3.org/2000/svg" viewBox="0 0 96 96"><rect width="96" height="96" rx="20" fill="#E9E6F6"/><path d="M48 18c-10 6-14 16-6 24 4 4 4 10 0 14 10-2 18-12 12-24-2-4-8-8-6-14z" fill="#E4574C"/><path d="M48 30c-5 4-6 10-2 14 2 2 2 5 0 7 5-2 8-8 5-14-1-2-4-4-3-7z" fill="#F2B84B"/><ellipse cx="48" cy="72" rx="24" ry="9" fill="#E85C9A"/><ellipse cx="48" cy="70" rx="24" ry="9" fill="#9C6ADE"/><circle cx="24" cy="66" r="4" fill="#F2B84B"/><circle cx="72" cy="66" r="4" fill="#F2B84B"/><circle cx="36" cy="82" r="3" fill="#F2B84B"/><circle cx="60" cy="82" r="3" fill="#F2B84B"/></svg>