<svg xmlns="http://www.w3.org/2000/svg" viewBox="0 0 96 96"><rect width="96" height="96" rx="20" fill="#F5E5EF"/><rect x="45" y="30" width="6" height="40" rx="3" fill="#5A4A55"/><path d="M46 34c-14-14-32-8-32 6 0 12 14 18 32 12z" fill="#F2A03C"/><path d="M50 34c14-14 32-8 32 6 0 12-14 18-32 12z" fill="#F2A03C"/><path d="M46 52c-12 14-28 10-28-2 0-8 12-14 28-6z" fill="#E8788C"/><path d="M50 52c12 14 28 10 28-2 0-8-12-14-28-6z" fill="#E8788C"/><circle cx="30" cy="42" r="4" fill="#F5E5EF"/><circle cx="66" cy="42" r="4" fill="#F5E5EF"/><path d="M48 30l-5-9M48 30l5-9" stroke="#5A4A55" stroke-width="3" fill="none" stroke-linecap="round"/><circle cx="42" cy="20" r="2.5" fill="#5A4A55"/><circle cx="54" cy="20" r="2.5" fill="#5A4A55"/></svg>