<svg xmlns="http://www.w3.org/2000/svg" viewBox="0 0 96 96"><rect width="96" height="96" rx="20" fill="#E9E6F6"/><path d="M48 20c-4 6-6 11-6 17 0 5 2 9 6 13 4-4 6-8 6-13 0-6-2-11-6-17z" fill="#F6B44C"/><path d="M40 40c-3 4-4 8-4 13 0 8 5 15 12 15s12-7 12-15c0-5-1-9-4-13" fill="none" stroke="#8A6BD1" stroke-width="5" stroke-linecap="round"/><path d="M48 46c-3 3-5 6-5 10 0 5 2 9 5 12 3-3 5-7 5-12 0-4-2-7-5-10z" fill="#EF7D8E"/><path d="M34 66c4 4 9 6 14 6s10-2 14-6" fill="none" stroke="#8A6BD1" stroke-width="5" stroke-linecap="round"/></svg>