<svg xmlns="http://www.w3.org/2000/svg" viewBox="0 0 96 96"><rect width="96" height="96" rx="20" fill="#FBF1D3"/><circle cx="32" cy="36" r="12" fill="#F4C89B"/><path d="M20 36c0-8 5-12 12-12s12 4 12 12c-3-3-6-4-12-4s-9 1-12 4z" fill="#4A3220"/><path d="M15 80c0-11 8-17 17-17s17 6 17 17z" fill="#4F7FD6"/><circle cx="64" cy="36" r="12" fill="#F4C89B"/><path d="M52 38c-2-11 6-16 12-16s14 5 12 16c-2-4-4-5-4-5s-4 2-8 2-6-2-8-2-2 1-4 5z" fill="#5A3A22"/><path d="M47 80c0-11 8-17 17-17s17 6 17 17z" fill="#E4574C"/></svg>