<svg xmlns="http://www.w3.org/2000/svg" viewBox="0 0 96 96"><rect width="96" height="96" rx="20" fill="#E9E6F6"/><circle cx="48" cy="50" r="24" fill="#F4C89A"/><path d="M24 46c0-16 12-26 24-26s24 10 24 26c-6-4-14-6-24-6s-18 2-24 6z" fill="#5B3A29"/><circle cx="39" cy="50" r="3.5" fill="#3A2A22"/><circle cx="57" cy="50" r="3.5" fill="#3A2A22"/><path d="M40 62c5 4 11 4 16 0" stroke="#3A2A22" stroke-width="3" fill="none" stroke-linecap="round"/><path d="M62 22c8-4 16 2 15 10-6-1-12-4-15-10z" fill="#F6D34D"/><path d="M69 24l3 3 6-4" stroke="#C79A1E" stroke-width="3" fill="none" stroke-linecap="round" stroke-linejoin="round"/></svg>