<svg xmlns="http://www.w3.org/2000/svg" viewBox="0 0 96 96"><rect width="96" height="96" rx="20" fill="#E2ECF8"/><path d="M24 52h48v8a14 14 0 0 1-14 14H38a14 14 0 0 1-14-14z" fill="#5B6470"/><rect x="20" y="48" width="56" height="7" rx="3.5" fill="#7B8593"/><ellipse cx="48" cy="52" rx="24" ry="4" fill="#8FC1DE"/><circle cx="40" cy="50" r="3" fill="#CFE6F2"/><circle cx="54" cy="49" r="2.5" fill="#CFE6F2"/><circle cx="47" cy="52" r="2" fill="#CFE6F2"/><path d="M38 40c-3-5 3-8 0-14" stroke="#B7C4CE" stroke-width="3.5" fill="none" stroke-linecap="round"/><path d="M48 38c-3-5 3-8 0-14" stroke="#B7C4CE" stroke-width="3.5" fill="none" stroke-linecap="round"/><path d="M58 40c-3-5 3-8 0-14" stroke="#B7C4CE" stroke-width="3.5" fill="none" stroke-linecap="round"/></svg>