<svg xmlns="http://www.w3.org/2000/svg" viewBox="0 0 96 96"><rect width="96" height="96" rx="20" fill="#DEEFEA"/><path d="M14 40h68v10H14z" fill="#9AA5B1"/><rect x="20" y="34" width="10" height="14" rx="2" fill="#7A8794"/><rect x="44" y="34" width="10" height="14" rx="2" fill="#7A8794"/><rect x="68" y="34" width="10" height="14" rx="2" fill="#7A8794"/><path d="M25 52c0 6 2 10 4 14" stroke="#4A90D9" stroke-width="4" fill="none" stroke-linecap="round"/><path d="M49 52c0 6-2 10-4 14" stroke="#4A90D9" stroke-width="4" fill="none" stroke-linecap="round"/><path d="M73 52c0 6 2 10 4 14" stroke="#4A90D9" stroke-width="4" fill="none" stroke-linecap="round"/><path d="M37 54c0 6 0 10-2 14" stroke="#4A90D9" stroke-width="4" fill="none" stroke-linecap="round"/><path d="M61 54c0 6 0 10 2 14" stroke="#4A90D9" stroke-width="4" fill="none" stroke-linecap="round"/><path d="M14 78c8-6 16-6 24 0s16 6 24 0 8-6 16 0v6H14z" fill="#7BB661"/></svg>