<svg xmlns="http://www.w3.org/2000/svg" viewBox="0 0 96 96"><rect width="96" height="96" rx="20" fill="#E7F1E4"/><path d="M22 50h52v10c0 12-11 20-26 20s-26-8-26-20z" fill="#C97B3A"/><path d="M22 50h52v10c0 12-11 20-26 20s-26-8-26-20z" fill="none" stroke="#8F5423" stroke-width="2"/><ellipse cx="48" cy="50" rx="26" ry="10" fill="#8B5A2B"/><circle cx="36" cy="48" r="6" fill="#5C9A3E"/><circle cx="52" cy="46" r="6" fill="#6FB04A"/><circle cx="60" cy="50" r="5" fill="#5C9A3E"/><ellipse cx="44" cy="52" rx="6" ry="4" fill="#C0392B"/><circle cx="30" cy="50" r="4" fill="#E8A13A"/><circle cx="66" cy="47" r="4" fill="#E8A13A"/><path d="M40 44c1-4 4-6 6-3M56 42c1-3 4-4 5-1" stroke="#3E7A2C" stroke-width="3" fill="none" stroke-linecap="round"/></svg>