<svg xmlns="http://www.w3.org/2000/svg" viewBox="0 0 96 96"><rect width="96" height="96" rx="20" fill="#E2ECF8"/><g stroke="#5B9BD5" stroke-width="5" stroke-linecap="round"><path d="M48 16v64"/><path d="M20 32l56 32"/><path d="M76 32L20 64"/></g><g stroke="#8FC4E8" stroke-width="4" stroke-linecap="round"><path d="M48 16l-7 7M48 16l7 7M48 80l-7-7M48 80l7-7"/><path d="M20 32l1 10M20 32l10-1M76 64l-1-10M76 64l-10 1"/><path d="M76 32l-1 10M76 32l-10-1M20 64l1-10M20 64l10 1"/></g><circle cx="48" cy="48" r="6" fill="#5B9BD5"/></svg>