<svg xmlns="http://www.w3.org/2000/svg" viewBox="0 0 96 96"><rect width="96" height="96" rx="20" fill="#FADFD9"/><path d="M48 28c-13 0-23 10-23 25s10 21 23 21 23-6 23-21-10-25-23-25z" fill="#D6483F"/><path d="M48 28c-9 0-16 6-20 15 4-6 11-9 20-9s16 3 20 9c-4-9-11-15-20-15z" fill="#E86A5F"/><path d="M42 24c0-4-2-7-5-9 5 0 9 3 9 8 3-4 8-6 12-4-3 3-6 4-8 7z" fill="#4FA65B"/><g fill="#F2A9A0"><circle cx="42" cy="50" r="3.5"/><circle cx="54" cy="48" r="3.5"/><circle cx="48" cy="60" r="3.5"/><circle cx="38" cy="60" r="3"/><circle cx="58" cy="58" r="3"/></g></svg>