<svg xmlns="http://www.w3.org/2000/svg" viewBox="0 0 96 96"><rect width="96" height="96" rx="20" fill="#FADFD9"/><path d="M21.54 32.68L21.54 48" stroke="#E4574C" stroke-width="6.27" stroke-linecap="round" stroke-linejoin="round" fill="none"/><path d="M21.54 48L21.54 63.32" stroke="#E4574C" stroke-width="6.27" stroke-linecap="round" stroke-linejoin="round" fill="none"/><path d="M29.89 60.69a2.63 2.63 0 1 0 0.53 3.69l-2.9 5.79" fill="#7a6a5b"/><path d="M38.25 32.68L50.79 32.68" stroke="#E86FA6" stroke-width="6.27" stroke-linecap="round" stroke-linejoin="round" fill="none"/><path d="M50.79 32.68L50.79 48" stroke="#E86FA6" stroke-width="6.27" stroke-linecap="round" stroke-linejoin="round" fill="none"/><path d="M50.79 48L50.79 63.32" stroke="#E86FA6" stroke-width="6.27" stroke-linecap="round" stroke-linejoin="round" fill="none"/><path d="M38.25 63.32L50.79 63.32" stroke="#E86FA6" stroke-width="6.27" stroke-linecap="round" stroke-linejoin="round" fill="none"/><path d="M38.25 48L38.25 63.32" stroke="#E86FA6" stroke-width="6.27" stroke-linecap="round" stroke-linejoin="round" fill="none"/><path d="M38.25 32.68L38.25 48" stroke="#E86FA6" stroke-width="6.27" stroke-linecap="round" stroke-linejoin="round" fill="none"/><path d="M56.36 32.68L68.89 32.68" stroke="#E4574C" stroke-width="6.27" stroke-linecap="round" stroke-linejoin="round" fill="none"/><path d="M68.89 32.68L68.89 48" stroke="#E4574C" stroke-width="6.27" stroke-linecap="round" stroke-linejoin="round" fill="none"/><path d="M68.89 48L68.89 63.32" stroke="#E4574C" stroke-width="6.27" stroke-linecap="round" stroke-linejoin="round" fill="none"/><path d="M56.36 63.32L68.89 63.32" stroke="#E4574C" stroke-width="6.27" stroke-linecap="round" stroke-linejoin="round" fill="none"/><path d="M56.36 48L56.36 63.32" stroke="#E4574C" stroke-width="6.27" stroke-linecap="round" stroke-linejoin="round" fill="none"/><path d="M56.36 32.68L56.36 48" stroke="#E4574C" stroke-width="6.27" stroke-linecap="round" stroke-linejoin="round" fill="none"/><path d="M74.46 32.68L87 32.68" stroke="#E86FA6" stroke-width="6.27" stroke-linecap="round" stroke-linejoin="round" fill="none"/><path d="M87 32.68L87 48" stroke="#E86FA6" stroke-width="6.27" stroke-linecap="round" stroke-linejoin="round" fill="none"/><path d="M87 48L87 63.32" stroke="#E86FA6" stroke-width="6.27" stroke-linecap="round" stroke-linejoin="round" fill="none"/><path d="M74.46 63.32L87 63.32" stroke="#E86FA6" stroke-width="6.27" stroke-linecap="round" stroke-linejoin="round" fill="none"/><path d="M74.46 48L74.46 63.32" stroke="#E86FA6" stroke-width="6.27" stroke-linecap="round" stroke-linejoin="round" fill="none"/><path d="M74.46 32.68L74.46 48" stroke="#E86FA6" stroke-width="6.27" stroke-linecap="round" stroke-linejoin="round" fill="none"/></svg>