<svg xmlns="http://www.w3.org/2000/svg" viewBox="0 0 96 96">
  <rect width="96" height="96" rx="20" fill="#dbeff2"/>
  <!-- big ears -->
  <path d="M40 30C22 20 8 26 8 44c0 16 14 22 30 20z" fill="#9fb6c4"/>
  <path d="M56 30C74 20 88 26 88 44c0 16-14 22-30 20z" fill="#9fb6c4"/>
  <path d="M38 34C26 28 16 32 16 44c0 11 10 15 24 14z" fill="#b9cdd8"/>
  <path d="M58 34C70 28 80 32 80 44c0 11-10 15-24 14z" fill="#b9cdd8"/>
  <!-- head -->
  <path d="M48 22c-15 0-22 10-22 24 0 8 3 14 8 18l14 4 14-4c5-4 8-10 8-18 0-14-7-24-22-24z" fill="#8ba6b5"/>
  <!-- eyes -->
  <circle cx="37" cy="43" r="4" fill="#2e3f47"/>
  <circle cx="59" cy="43" r="4" fill="#2e3f47"/>
  <circle cx="38" cy="41.5" r="1.5" fill="#fff"/>
  <circle cx="60" cy="41.5" r="1.5" fill="#fff"/>
  <!-- trunk -->
  <path d="M42 52c0 6 12 6 12 0v18c0 8-4 14-10 14-5 0-8-4-8-9 0-4 3-6 6-6 2 0 4 1 4 3" fill="#8ba6b5"/>
  <path d="M42 58h12M43 66h10" stroke="#6f8b9a" stroke-width="2" stroke-linecap="round"/>
  <!-- tusks -->
  <path d="M38 62c-3 4-4 9-2 12 1-4 3-7 5-9z" fill="#fff"/>
  <path d="M58 62c3 4 4 9 2 12-1-4-3-7-5-9z" fill="#fff"/>
</svg>
