<svg xmlns="http://www.w3.org/2000/svg" viewBox="0 0 96 96"><rect width="96" height="96" rx="20" fill="#FADFD9"/><path d="M30 38c8-3 20-3 28 0 6 2 10 7 10 13 0 8-8 15-24 15S22 59 22 51c0-6 3-11 8-13z" fill="#F6C89A"/><path d="M30 38c8-3 20-3 28 0" stroke="#C98B4A" stroke-width="3" fill="none" stroke-linecap="round"/><path d="M48 20c-6 0-11 5-11 11 0 6 5 11 11 11s11-5 11-11-5-11-11-11z" fill="#E85C5C"/><path d="M48 24c-3-4-9-2-9 3 0 4 6 8 9 10 3-2 9-6 9-10 0-5-6-7-9-3z" fill="#fff"/><circle cx="36" cy="56" r="3" fill="#EDA9A0"/><circle cx="60" cy="56" r="3" fill="#EDA9A0"/></svg>