<svg xmlns="http://www.w3.org/2000/svg" viewBox="0 0 96 96"><rect width="96" height="96" rx="20" fill="#E7F1E4"/><circle cx="48" cy="44" r="20" fill="#F4C89A"/><path d="M28 44c0-11 9-20 20-20s20 9 20 20c-5-3-12-4-20-4s-15 1-20 4z" fill="#5B3A29"/><path d="M36 44c2-2 6-2 8 0M52 44c2-2 6-2 8 0" stroke="#3A2A22" stroke-width="3" fill="none" stroke-linecap="round"/><ellipse cx="48" cy="55" rx="5" ry="7" fill="#B56A55"/><path d="M58 30c5-4 12-3 14 2 3 7-1 14-6 16" fill="#BFD9C4"/><path d="M62 34l3 3 5-3M62 42l3 3 5-3" stroke="#7BB6A3" stroke-width="2.5" fill="none" stroke-linecap="round" stroke-linejoin="round"/></svg>