<svg xmlns="http://www.w3.org/2000/svg" viewBox="0 0 96 96"><rect width="96" height="96" rx="20" fill="#FADFD9"/><path d="M28 58h40c0 6-9 11-20 11s-20-5-20-11z" fill="#E0A05A"/><path d="M32 58c0-4 7-7 16-7s16 3 16 7z" fill="#F2C777"/><rect x="45" y="42" width="6" height="14" rx="3" fill="#C6803E"/><g><path d="M42 34c0-6 3-10 6-14 3 4 6 8 6 14 0 5-3 8-6 8s-6-3-6-8z" fill="#F6B44C"/><path d="M45 34c0-4 1-6 3-9 2 3 3 5 3 9 0 3-1 5-3 5s-3-2-3-5z" fill="#EF6C52"/></g><circle cx="30" cy="46" r="4" fill="#F9D65C"/><circle cx="66" cy="46" r="4" fill="#F9D65C"/></svg>