<svg xmlns="http://www.w3.org/2000/svg" viewBox="0 0 96 96"><rect width="96" height="96" rx="20" fill="#F5E5EF"/><circle cx="42" cy="52" r="20" fill="#F6C89A"/><path d="M22 52a20 20 0 0 1 40 0z" fill="#3A5A8C"/><circle cx="36" cy="52" r="2.6" fill="#3A2A1C"/><circle cx="49" cy="52" r="2.6" fill="#3A2A1C"/><path d="M36 60c3 3 10 3 13 0" stroke="#B5613C" stroke-width="3" fill="none" stroke-linecap="round"/><path d="M66 26c9-5 15 2 8 9-4 4-12 10-15 11-2-6-2-15 7-20z" fill="#F6C89A"/><path d="M60 22c2 6 5 10 10 12M64 18c1 6 3 9 8 11" stroke="#C98B4A" stroke-width="3" fill="none" stroke-linecap="round"/></svg>