<svg xmlns="http://www.w3.org/2000/svg" viewBox="0 0 96 96"><rect width="96" height="96" rx="20" fill="#FBF1D3"/><path d="M24 70h48l-4 8H28z" fill="#C6803E"/><path d="M30 66h36v6H30z" fill="#E0A05A"/><ellipse cx="48" cy="64" rx="18" ry="5" fill="#F2C777"/><path d="M42 64c0-8 3-14 6-20 3 6 6 12 6 20z" fill="#EF7D8E"/><path d="M48 44c-2-5-1-9 0-13 1 4 2 8 0 13z" fill="#F6B44C"/><circle cx="48" cy="30" r="4" fill="#F9D65C"/><path d="M36 60c-3-2-6-2-9 0M60 60c3-2 6-2 9 0" stroke="#C6803E" stroke-width="3" fill="none" stroke-linecap="round"/></svg>