<svg xmlns="http://www.w3.org/2000/svg" viewBox="0 0 96 96"><rect width="96" height="96" rx="20" fill="#FCE9D6"/><ellipse cx="48" cy="80" rx="26" ry="5" fill="#E9C39F"/><path d="M22 54h52v6a10 10 0 0 1-10 10H32a10 10 0 0 1-10-10z" fill="#5B6470"/><rect x="18" y="49" width="60" height="7" rx="3.5" fill="#7B8593"/><rect x="74" y="50" width="14" height="5" rx="2.5" fill="#3E4652"/><path d="M40 44c-3-5 2-8 0-13" stroke="#C9CDD4" stroke-width="3" fill="none" stroke-linecap="round"/><path d="M48 42c-3-5 2-8 0-13" stroke="#C9CDD4" stroke-width="3" fill="none" stroke-linecap="round"/><path d="M56 44c-3-5 2-8 0-13" stroke="#C9CDD4" stroke-width="3" fill="none" stroke-linecap="round"/></svg>