<svg xmlns="http://www.w3.org/2000/svg" viewBox="0 0 96 96"><rect width="96" height="96" rx="20" fill="#FCE9D6"/><path d="M16 52c0 18 14 26 32 26s32-8 32-26z" fill="#8B5A2B"/><path d="M16 52c8-6 16-6 24 0s16 6 24 0 8-6 16 0v-6H16z" fill="#A9702E"/><path d="M16 46h64v8H16z" fill="#C68642"/><path d="M40 30c-5 4-8 10-8 16 6 0 11-3 14-8-2-3-4-6-6-8z" fill="#7BB661"/><path d="M56 30c5 4 8 10 8 16-6 0-11-3-14-8 2-3 4-6 6-8z" fill="#7BB661"/><path d="M48 24c-3 6-3 13 0 18 3-5 3-12 0-18z" fill="#5C9E4A"/></svg>