<svg xmlns="http://www.w3.org/2000/svg" viewBox="0 0 96 96">
  <rect width="96" height="96" rx="20" fill="#f6e2cf"/>
  <!-- ears -->
  <path d="M34 26l-6-14 12 8z" fill="#7a4a28"/>
  <path d="M62 26l6-14-12 8z" fill="#7a4a28"/>
  <path d="M35 24l-3-8 7 5z" fill="#e7b98f"/>
  <path d="M61 24l3-8-7 5z" fill="#e7b98f"/>
  <!-- head/upper -->
  <path d="M32 24c-6 6-8 16-8 26 0 6 3 11 8 14l16 4 16-4c5-3 8-8 8-14 0-10-2-20-8-26-4-4-10-6-16-6s-12 2-16 6z" fill="#a5673a"/>
  <!-- muzzle -->
  <path d="M36 60c0 12 5 20 12 20s12-8 12-20c0-6-5-9-12-9s-12 3-12 9z" fill="#c68a56"/>
  <!-- forelock mane -->
  <path d="M48 12c-4 3-6 8-6 14 3-3 5-4 6-4 1 0 3 1 6 4 0-6-2-11-6-14z" fill="#5e3820"/>
  <!-- eyes -->
  <circle cx="35" cy="42" r="4.5" fill="#2c1a0e"/>
  <circle cx="61" cy="42" r="4.5" fill="#2c1a0e"/>
  <circle cx="36.5" cy="40" r="1.5" fill="#fff"/>
  <circle cx="62.5" cy="40" r="1.5" fill="#fff"/>
  <!-- nostrils -->
  <ellipse cx="42" cy="68" rx="2.6" ry="3.6" fill="#5e3820"/>
  <ellipse cx="54" cy="68" rx="2.6" ry="3.6" fill="#5e3820"/>
</svg>
