<svg xmlns="http://www.w3.org/2000/svg" viewBox="0 0 96 96"><rect width="96" height="96" rx="20" fill="#DEEFEA"/><path d="M26 44h30v14a10 10 0 0 1-10 10H36a10 10 0 0 1-10-10z" fill="#7FB8AE"/><rect x="22" y="40" width="38" height="6" rx="3" fill="#5E9E93"/><rect x="56" y="42" width="12" height="4" rx="2" fill="#4A857B"/><path d="M70 34c-4 0-7 3-7 7v20a4 4 0 0 0 8 0V41c0-4-3-7-1-7z" fill="#E8A24E"/><ellipse cx="69" cy="30" rx="5" ry="7" fill="#E8A24E"/><rect x="66" y="60" width="8" height="6" rx="2" fill="#C9812F"/></svg>