<svg xmlns="http://www.w3.org/2000/svg" viewBox="0 0 96 96"><rect width="96" height="96" rx="20" fill="#FCE9D6"/><ellipse cx="48" cy="72" rx="24" ry="6" fill="#C97B3E"/><path d="M28 72c0-10 9-16 20-16s20 6 20 16z" fill="#E4574C"/><rect x="42" y="46" width="12" height="12" rx="3" fill="#F2B705"/><path d="M48 46c-4-8 2-14 0-20-2 6 4 12 0 20z" fill="#F5A623"/><path d="M40 50c-3-5 1-9 0-13-2 4 3 8 0 13z" fill="#F5A623"/><path d="M56 50c-3-5 1-9 0-13-2 4 3 8 0 13z" fill="#F5A623"/><circle cx="48" cy="34" r="3" fill="#E4574C"/></svg>