<svg xmlns="http://www.w3.org/2000/svg" viewBox="0 0 96 96"><rect width="96" height="96" rx="20" fill="#E9E6F6"/><circle cx="48" cy="34" r="15" fill="#F4C89B"/><path d="M33 34c0-9 6-15 15-15s15 6 15 15c-4-3-7-4-15-4s-11 1-15 4z" fill="#E8E4EE"/><path d="M36 44c3-2 5-6 5-6M60 44c-3-2-5-6-5-6" stroke="#C9C2DA" stroke-width="0"/><path d="M38 46c4 2 16 2 20 0l-4 8h-12z" fill="#DDD6EA"/><path d="M28 86c1-14 9-22 20-22s19 8 20 22z" fill="#7E63C9"/><circle cx="42" cy="35" r="2.3" fill="#3A2A20"/><circle cx="54" cy="35" r="2.3" fill="#3A2A20"/></svg>