<svg xmlns="http://www.w3.org/2000/svg" viewBox="0 0 96 96"><rect width="96" height="96" rx="20" fill="#E2ECF8"/><rect x="14" y="46" width="20" height="34" rx="3" fill="#6F9BD8"/><rect x="38" y="26" width="22" height="54" rx="3" fill="#4A78B8"/><rect x="64" y="38" width="18" height="42" rx="3" fill="#7FB0E0"/><rect x="19" y="52" width="5" height="6" rx="1" fill="#FBF1D3"/><rect x="26" y="52" width="5" height="6" rx="1" fill="#FBF1D3"/><rect x="19" y="63" width="5" height="6" rx="1" fill="#FBF1D3"/><rect x="26" y="63" width="5" height="6" rx="1" fill="#FBF1D3"/><rect x="43" y="33" width="5" height="7" rx="1" fill="#FBF1D3"/><rect x="51" y="33" width="5" height="7" rx="1" fill="#FBF1D3"/><rect x="43" y="45" width="5" height="7" rx="1" fill="#FBF1D3"/><rect x="51" y="45" width="5" height="7" rx="1" fill="#FBF1D3"/><rect x="43" y="57" width="5" height="7" rx="1" fill="#FBF1D3"/><rect x="51" y="57" width="5" height="7" rx="1" fill="#FBF1D3"/><rect x="68" y="45" width="5" height="6" rx="1" fill="#FBF1D3"/><rect x="74" y="45" width="4" height="6" rx="1" fill="#FBF1D3"/><rect x="68" y="56" width="5" height="6" rx="1" fill="#FBF1D3"/><rect x="74" y="56" width="4" height="6" rx="1" fill="#FBF1D3"/></svg>