<svg xmlns="http://www.w3.org/2000/svg" viewBox="0 0 96 96"><rect width="96" height="96" rx="20" fill="#FADFD9"/><rect x="18" y="44" width="60" height="34" rx="8" fill="#5B6470"/><rect x="18" y="44" width="60" height="10" rx="5" fill="#7B8593"/><circle cx="34" cy="64" r="8" fill="#3E4652"/><circle cx="62" cy="64" r="8" fill="#3E4652"/><circle cx="34" cy="64" r="3" fill="#E8A24E"/><circle cx="62" cy="64" r="3" fill="#E8A24E"/><path d="M40 40c-3-6 3-9 0-15 5 2 8 8 5 13-1 2-4 3-5 2z" fill="#F0913C"/><path d="M56 40c-3-6 3-9 0-15 5 2 8 8 5 13-1 2-4 3-5 2z" fill="#F0913C"/><path d="M42 36c-2-4 2-6 0-10 3 1 5 5 3 8z" fill="#F5C542"/><path d="M58 36c-2-4 2-6 0-10 3 1 5 5 3 8z" fill="#F5C542"/></svg>