<svg xmlns="http://www.w3.org/2000/svg" viewBox="0 0 96 96"><rect width="96" height="96" rx="20" fill="#E2ECF8"/><path d="M30 30c-4 0-7 3-7 7v22c0 8 6 14 14 14 5 0 9-2 12-6" fill="#F7C8B8"/><path d="M30 30c-4 0-7 3-7 7v22c0 8 6 14 14 14 5 0 9-2 12-6" fill="none" stroke="#C97B63" stroke-width="3" stroke-linecap="round"/><circle cx="32" cy="46" r="3" fill="#3D5A34"/><path d="M28 58c3-2 7-2 9 1" stroke="#B23A54" stroke-width="3" fill="none" stroke-linecap="round"/><g stroke="#4A90D9" stroke-width="4.5" stroke-linecap="round"><path d="M60 40h14"/><path d="M60 52h18"/><path d="M60 64h12"/></g></svg>